<?xml version="1.0" encoding="UTF-8" standalone="no"?>
<!-- Created with Inkscape (http://www.inkscape.org/) -->

<svg
   width="12.722713mm"
   height="8.6449099mm"
   viewBox="0 0 12.722713 8.6449099"
   version="1.1"
   id="svg1"
   xmlns="http://www.w3.org/2000/svg"
   xmlns:svg="http://www.w3.org/2000/svg">
  <defs
     id="defs1" />
  <g
     id="layer1"
     transform="translate(-112.7125,-67.204171)">
    <path
       d="m 116.30078,71.059011 -3.58828,0.128913 v 0.128913 l 3.58828,0.128913 v 1.546939 c 1.4143,-0.441246 2.41726,0.516599 2.15302,2.062586 h 4.1865 c 0.10861,-1.482646 1.9163,-1.727597 2.0334,-0.128913 0.49149,-0.05576 0.67001,-0.373989 0.71769,-0.902388 0.0986,-1.093602 0,-2.252213 0,-3.351742 0,-0.542025 0.0912,-1.178401 -0.13955,-1.675871 -0.48493,-1.045289 -1.57657,-0.902387 -2.49193,-0.902387 -0.68193,0 -1.48809,-0.126231 -2.15302,0.04297 -1.29849,0.330439 -2.25403,2.117805 -2.51184,3.437732 h -0.11962 c -0.0625,-0.62357 -0.46664,-0.515647 -0.95689,-0.515647 0,-1.030949 0.0133,-2.063035 0,-3.093773 -0.004,-0.312367 -0.0508,-0.83648 -0.47845,-0.751998 -0.33422,0.06604 -0.23922,0.624972 -0.23922,0.880903 v 2.964921 m -3.22951,-3.695435 -0.23922,1.761807 0.0598,1.525455 0.65786,0.150398 h 1.55495 l 0.69774,-0.06446 0.13954,-0.709004 v -1.804775 l -0.0598,-0.730515 -0.65786,-0.171884 -2.15302,0.04297 m 2.27264,0.214852 -0.9569,1.28913 h -0.11961 l -0.95689,-1.28913 h 2.0334 m -2.15302,0.386742 0.95689,1.031293 v 0.128913 l -1.07651,1.031293 0.11962,-2.191518 m 2.51184,0 v 2.320423 l -1.03663,-1.160198 1.03663,-1.160198 m 9.09056,4.125118 c -0.46009,0 -1.26159,-0.167772 -1.67458,0.06446 -0.51154,0.287655 -0.56374,1.077198 -0.97684,1.461002 -0.26762,0.24865 -1.8497,0.334672 -2.07327,0 -0.16626,-0.248864 -0.0598,-0.843121 -0.0598,-1.138713 l 0.47845,-0.128913 -0.83728,-0.902388 -0.11961,0.128913 0.11961,0.386741 h -1.19613 c 0.33237,-0.972291 1.03855,-2.852208 2.03341,-3.179762 0.66,-0.217348 1.5844,-0.04297 2.27263,-0.04297 0.52242,0 1.50114,-0.20795 1.87392,0.27932 0.21094,0.275723 0.15948,0.678736 0.15948,1.009809 v 2.062586 m -9.32974,-1.546939 h -2.15302 l 1.07651,-1.11723 1.07651,1.11723 m 1.19613,2.492295 c -1.50069,0.539115 -0.82862,3.259402 0.71768,2.750079 1.66227,-0.547396 0.93364,-3.343275 -0.71768,-2.750079 m 0.23923,0.623067 c 0.89818,-0.196408 1.1934,1.203775 0.35882,1.482487 -0.86685,0.289481 -1.2006,-1.298416 -0.35882,-1.482487 m 6.69819,0.279321 c -1.03209,0.169937 -0.92361,1.890712 0.11961,1.890712 1.15678,0 1.05418,-2.08399 -0.11961,-1.890712 m -0.11962,0.494162 c 0.48205,-0.17885 1.01161,0.477335 0.47845,0.816452 -0.59108,0.375946 -1.04095,-0.607748 -0.47845,-0.816452 z"
       fill="#141414"
       id="path1"
       style="stroke-width:0.264583" />
  </g>
</svg>
