<?xml version="1.0" encoding="UTF-8"?>
<!-- Created with Inkscape (http://www.inkscape.org/) -->
<svg width="114" height="100" version="1.1" viewBox="0 0 114 100" xmlns="http://www.w3.org/2000/svg">
 <path d="m16.562 31.666-13.562 0.48723v0.48723l13.562 0.48723v5.8467c5.3454-1.6677 9.1361 1.9525 8.1374 7.7956h15.823c0.41048-5.6037 7.2427-6.5295 7.6853-0.48723 1.8576-0.21074 2.5323-1.4135 2.7125-3.4106 0.37286-4.1333 0-8.5123 0-12.668 0-2.0486 0.34482-4.4538-0.52742-6.334-1.8328-3.9507-5.9587-3.4106-9.4183-3.4106-2.5774 0-5.6243-0.47709-8.1374 0.16241-4.9077 1.2489-8.5192 8.0043-9.4936 12.993h-0.45208c-0.2364-2.3568-1.7637-1.9489-3.6166-1.9489 0-3.8965 0.05021-7.7973 0-11.693-0.01521-1.1806-0.19197-3.1615-1.8083-2.8422-1.2632 0.24959-0.90416 2.3621-0.90416 3.3294v11.206m-12.206-13.967-0.90415 6.6588 0.22604 5.7655 2.4864 0.56843h5.877l2.6371-0.24361 0.52742-2.6797v-6.8212l-0.22604-2.761-2.4864-0.64964-8.1374 0.16241m8.5895 0.81204-3.6166 4.8723h-0.45208l-3.6166-4.8723h7.6853m-8.1374 1.4617 3.6166 3.8978v0.48723l-4.0687 3.8978 0.45208-8.2829m9.4936 0v8.7701l-3.918-4.385 3.918-4.385m34.358 15.591c-1.7389 0-4.7682-0.6341-6.3291 0.24361-1.9334 1.0872-2.1307 4.0713-3.692 5.5219-1.0115 0.93978-6.991 1.2649-7.836 0-0.62837-0.94059-0.22604-3.1866-0.22604-4.3038l1.8083-0.48723-3.1645-3.4106-0.45208 0.48723 0.45208 1.4617h-4.5208c1.2562-3.6748 3.9252-10.78 7.6853-12.018 2.4945-0.82147 5.9883-0.16241 8.5895-0.16241 1.9745 0 5.6736-0.78595 7.0825 1.0557 0.79726 1.0421 0.60277 2.5653 0.60277 3.8166v7.7956m-35.262-5.8467h-8.1374l4.0687-4.2226 4.0687 4.2226m4.5208 9.4197c-5.6719 2.0376-3.1318 12.319 2.7125 10.394 6.2826-2.0689 3.5287-12.636-2.7125-10.394m0.90416 2.3549c3.3947-0.74233 4.5105 4.5497 1.3562 5.6031-3.2763 1.0941-4.5377-4.9074-1.3562-5.6031m25.316 1.0557c-3.9008 0.64228-3.4908 7.146 0.45208 7.146 4.3721 0 3.9843-7.8765-0.45208-7.146m-0.45208 1.8677c1.8219-0.67597 3.8234 1.8041 1.8083 3.0858-2.234 1.4209-3.9343-2.297-1.8083-3.0858z" fill="#141414"/>
</svg>
