<?xml version="1.0" encoding="UTF-8" standalone="no"?>
<!-- Created with Inkscape (http://www.inkscape.org/) -->

<svg
   width="210mm"
   height="297mm"
   viewBox="0 0 210 297"
   version="1.1"
   id="svg1"
   xmlns="http://www.w3.org/2000/svg"
   xmlns:svg="http://www.w3.org/2000/svg">
  <defs
     id="defs1" />
  <g
     id="layer1">
    <g
       transform="matrix(0.0311441,0,0,0.03012546,102.41272,140.57355)"
       id="g4">
      <path
         d="m 84.751,324.06 h -16.5 l 16.5,-0.67379 16.5,0.67379 z m 106,0.17869 -4.5,-0.0532 11,-1.5206 8,0.0694 -10,1.5576 z m -208,-1.0705 -6.5,0.0616 -26.853,-2.7828 -0.48993,-0.48993 -0.48993,-0.48994 1.0622,-1.0622 33.771,-0.77765 -11,1.5139 16,0.69275 -16,1.1695 7,1.461 10,0.64225 z m 232.48,-0.70108 h -2.3592 l -1.2361,-2 5.618,-0.0306 -3,-1.9388 6.5,-0.0306 v 2.786 l -1.5818,0.60699 -1.5818,0.60698 z m -224.98,-2 h -0.5 v -1 h 1 v 1 z m 5.1667,-2.3333 -0.66667,0.66667 v -2.6667 l 1.3333,1.3333 z m 193.88,0 h -1.456 l 1.0502,-1.6993 1.8618,1.1507 v 0.54863 z m 2.956,0.33333 h -0.5 v -1 h 1 v 1 z m 10,-0.35495 -9,-0.006 9.5604,-0.75155 8.4396,0.76263 z m -213,-0.64505 h -0.5 v -1 h 1 v 1 z m 3,0 h -0.5 v -1 h 1 v 1 z m 95,-0.47023 -62,-2.2e-4 62.644,-0.55824 61.356,0.55868 z m 70,0.47023 h -0.5 v -1 h 1 v 1 z m 2.5,0 h -1.3333 l 1.3333,-1.3333 1.3333,1.3333 z m -135.62,-1 h -0.37756 v -0.75511 l 3.5,-2.7449 -2.7449,3.5 z m -31.878,-2 h -0.5 v -1 h 1 v 1 z m 199,0 h -0.5 v -1 h 1 v 1 z m -31.941,-1 h -0.44099 l -1.427,-2.309 1.1545,0.71352 1.1545,0.71353 v 0.88196 z m 16.858,-1.0168 -0.91667,-0.0168 -6.5,-4.1627 v -0.96671 l 7.5,4.5104 0.41667,0.32634 0.41666,0.32634 z m 2.0833,0.0168 h -0.5 v -1 h 1 v 1 z m 1.941,0 h -0.44098 v -2 h 2.118 l -1.2361,2 z m -189.94,-1 h -0.5 v -1 h 1 v 1 z m 45.5,-0.27232 h -4.5 l 4.5,-0.86674 4.5,0.86674 z m 85,-1.1682 h -28.5 l 28.5,-0.61439 28.5,0.61439 z m 29.5,0.44052 h -0.5 v -1 h 1 v 1 z m 43,0 h -0.5 v -1 h 1 v 1 z m -10.559,-1 h -1.059 l 1.2361,-2 h 0.88197 v 2 z m 27.059,-1 h -1.3333 l 1.3333,-1.3333 1.3333,1.3333 z m -238,-1.2997 h -5.5 l 5.5,-0.83318 5.5,0.83318 z m -16.5,-0.70034 h -0.5 v -1 h 1 v 1 z m 229.5,0 h -1 v -4.882 l -2,-1.2361 v -2.188 l 4,4.612 v 3.694 z m -16,-1.5 -1,0.61804 v -4.118 h 2 v 2.882 z m 8.9686,-1.5 h -0.96862 v -3 h 0.78602 l 0.57561,1.5 0.5756,1.5 z m 37.531,0 h -0.5 v -1 h 1 v 1 z m -42,-1 h -0.5 v -1 h 1 v 1 z m 7,0 h -0.5 v -1 h 1 v 1 z m -228,-2 h -0.5 v -1 h 1 v 1 z m 265,0 h -0.5 v -1 h 1 v 1 z m -104.9,-1.2708 -0.60417,0.60417 0.1578,-3.8333 1.0504,2.625 z m 58.462,-0.4493 -1.5665,1.2201 2.5611,-3.2785 5.138,-0.98218 1.9005,0.49698 1.9005,0.49699 v 1.8848 l -2.4428,-1.5097 -5.9243,0.45141 z m -218.4,-0.6132 -0.66667,0.66667 v -2.6667 l 1.3333,1.3333 z m 78.183,-1.1833 -0.51667,0.51666 -0.66667,-0.66666 -0.66667,-0.66667 v -2.0667 l 2.3667,2.3667 z m 49.782,0.32201 -29.132,-0.25925 -10,-0.58838 -4.497,-2.2941 -1.3061,1.3061 -2.6969,-5.1984 -4.58e-4,-0.13569 -4.58e-4,-0.1357 h 76.865996 l -0.0509,3.7823 -0.0509,3.7823 z m -43.132,-3.8054 h 0.5 v -1 h -1 v 1 z m 8,-1 h 0.5 v -1 h -1 v 1 z m 6.5,0 h 1.3333 l -0.66667,-0.66666 -0.66667,-0.66667 -0.66667,0.66667 -0.66667,0.66666 z m 56,0 h 1.3333 l -1.3333,-1.3333 -1.3333,1.3333 z m 110.5,5 h -0.5 v -1 h 1 v 1 z m -83.841,-1.1741 -18.433,0.14532 -0.59922,-2.2356 -0.59921,-2.2356 -0.0127,-1 -0.0126,-1 12.498,0.1784 27,0.35219 -3,1.9388 2.5,0.0306 v 2.118 l -1.9771,-1.2219 1.0685,2.7845 z m 14.841,-0.82592 h 0.5 v -1 h -1 v 1 z m -36.813,-1.2383 -0.45508,1.7383 0.0404,-8 0.8698,4.5233 z m 42.813,1.2383 h -0.5 v -1 h 1 v 1 z m -126.6,-2.585 -0.39634,0.37432 -5.423,-8.7893 h 0.89467 l 5.3211,8.0407 z m 127.5,0.58502 h -0.39301 v -1.882 l 1.9771,-1.2219 -0.59553,1.5519 -0.59554,1.5519 z m -176.89,-1.2469 -2,-0.1063 -14,-1.2936 14,-0.2126 4,1.7188 z m 4,0.24687 h -0.5 v -1 h 1 v 1 z m 3.882,0 h -0.5 l 1.2361,-2 h 1 l -1.2361,2 z m 232.28,-0.33333 -0.66667,0.66667 v -2.6667 l 1.3333,1.3333 z m -267.17,-0.66667 h -0.5 v -1 h 1 v 1 z m 8.5,-0.15789 h -2.5 l 1.25,-0.50439 1.25,-0.50438 1.25,0.50438 1.25,0.50439 z m 194.5,-0.84211 h -0.5 v -1 h 1 v 1 z m 15,0 h -0.5 v -1 h 1 v 1 z m -217,-1 h -0.5 v -1 h 1 v 1 z m 35.424,0 h -0.86163 l 1.1512,-3 h 1.7233 l -1.1512,3 z m 169.27,0 h -0.5 l 3.62,-4 h 1 l -1.81,2 -1.81,2 z m -165.81,-4 h -0.5 l 1.2361,-2 h 1 l -1.2361,2 z m 29.285,-1.3333 -0.66667,0.66667 v -2.6667 l 1.3333,1.3333 z m 136.06,0.33333 h -1.6076 l -0.56378,-0.91221 -0.56378,-0.91222 2.9516,0.43321 1.3912,1.3912 z m 5.7743,0 h -0.5 v -1 h 1 v 1 z m 56,0 h -0.5 v -1 h 1 v 1 z m -125.75,-1.2392 -16.246,-0.26075 -50.294,-1 -3.863,-3.5 h -2.5092 l 0.79167,-2.375 2.875,-0.77726 -2.7643,1.9336 4.2643,1.3534 v 2.0792 l 3.1039,-1.1911 -1.0578,1.7116 61.454,0.36442 19.5,0.65501 v -3.754 h -2.214 l 1.1369,-2.9628 -6.423,-1.8568 5.3364,-0.1804 2.8979,-1.112 0.12834,5.5668 0.12833,5.5668 z m 21.254,0.23925 h -1.3333 l 1.3333,-1.3333 1.3333,1.3333 z m -126.75,-1.1183 -0.75,-0.11831 -6,-1.5268 7.5,-0.23663 v 2 z m 8.25,0.11831 h -0.5 v -1 h 1 v 1 z m 22.167,-0.33333 -0.66667,0.66667 v -2.6667 l 1.3333,1.3333 z m 93.833,0.33333 h -0.5 v -1 h 1 v 1 z m 49.25,-1.1803 -1.75,1.4903 v -1.4528 l 2.8571,-2.8572 h 3.2609 l -0.65937,-1.0669 -0.65936,-1.0669 3.4932,0.63376 0.4902,-1.4093 0.49019,-1.4094 -1.4771,0.56683 -1.4771,0.56682 -2.8186,-1.8888 5.9829,0.57386 0.60964,3.219 -6.5925,2.6104 z m 34.214,1.1045 -0.46429,-0.0758 -8.4086,-4.4236 -0.74432,-0.74431 -0.74432,-0.74432 7.8973,3.2389 1.4643,1.4125 1.4643,1.4125 z m 7.0947,0.0758 h -1.941 l -1.0575,-1.7111 4.9395,0.94424 v 0.76684 z m 10.109,-0.76844 -1.0566,1.0566 0.61931,-2.3683 0.61932,-2.3683 0.43723,1.3117 0.43724,1.3117 z m -252.79,-0.23156 h -0.38342 v -5 h 1.7227 l -0.95581,5 z m 2.1166,0 h -0.5 v -1 h 1 v 1 z m 9.5,0 h -1.3333 l 1.3333,-1.3333 1.3333,1.3333 z m 27.967,-0.70168 -1.9672,0.51445 v -2.75 l 2.7977,1.0736 1.3203,-2.1364 h 2.1269 l -2.3104,2.7839 z m 16.699,0.36835 -0.66667,0.66667 v -2.6667 l 1.3333,1.3333 z m -25.786,-0.66667 h -0.80928 l 4.4285,-4.6011 0.82107,0.58884 -3.631,4.0123 z m 5.6193,0 h -0.5 v -1 h 1 v 1 z m 16.75,-0.0153 -0.75,-0.0153 -2.9748,-1.8808 4.4748,0.33707 v 1.5744 z m 57.167,-0.0636 -1.9167,-0.079 2.625,-1.0504 1.2083,1.2083 z m 8,0 -1.9167,-0.079 2.625,-1.0504 1.2083,1.2083 z m 80.083,0.0789 h -0.5 v -1 h 1 v 1 z m 45,0 h -0.5 v -1 h 1 v 1 z m -249.76,-6.25 -0.36082,5.75 v -23 l 0.72164,11.5 z m 53.261,5.25 h -1 v -2 h 2 v 2 z m 108.67,-0.33333 -0.66667,0.66667 v -2.6667 l 1.3333,1.3333 z m 96,0 -0.66667,0.66667 v -2.6667 l 1.3333,1.3333 z m -184.28,-0.66665 h -0.5 l 1.2361,-2 h 1 l -1.2361,2 z m 29.618,-0.27236 h -4.5 l 4.5,-0.86674 4.5,0.86674 z m 18.75,0.20208 -1.25,-0.0703 -4,-1.7188 6.5,-0.1406 v 2 z m 84.75,0.0703 h -0.5 v -1 h 1 v 1 z m -141.28,-1.0634 -0.71862,-0.0634 -5,-2.1353 -5.5,0.29384 v -2.2766 l -3,2.4898 v -2.1676 l -15.5,0.76839 -26,-1.5383 8,-0.54408 -6,-1.655 15,1.0493 37,0.73819 78,-0.002 6,1.8315 -9,1.2985 -66.31,-0.52357 0.92774,1.5 h -2.118 v -2 h -6.214 l 1.1512,3 z m -6.2186,-3.9366 h 1.3333 l -0.66667,-0.66666 -0.66667,-0.66667 -0.66667,0.66667 -0.66667,0.66666 z m 190.66,3.25 -0.50439,1.25 v -5 l 1.0088,2.5 z m -207.16,-0.25 h -0.5 v -1 h 1 v 1 z m 2,0 h -0.5 v -1 h 1 v 1 z m 176,-0.19494 -3,-0.0371 1.769,-0.46099 1.769,-0.46098 2.4619,0.99608 z m -59.5,-0.80506 h -1 v -3.1015 l 42.681,0.31787 5.3192,1.0168 8.2e-4,0.63342 8.3e-4,0.63342 -33.502,-0.5163 -12.504,-0.4837 0.004,1.5 z m 97.667,-0.33333 -0.66667,0.66667 v -2.6667 l 1.3333,1.3333 z m 4.8333,0.33333 h -0.5 v -1 h 1 v 1 z m -44,-1 h -0.5 v -1 h 1 v 1 z m 28.882,-2 h -1.5 l 0.68424,-1.1071 0.68425,-1.1071 -4.0822,1.2956 -1.2722,-2.0584 3.6039,1.3516 -1.5,-1.8982 -1.5,-1.8982 6.2258,4.3628 1.5949,-1.4409 -1.4387,2.5 z m 8.5838,-0.47887 -1.0154,0.62753 0.27477,-0.82433 0.27478,-0.82433 h -1.3189 l -4.3413,-5.519 -2.3398,1.3397 0.74364,-0.82064 0.74364,-0.82063 -1.9936,-1.3964 -1.9936,-1.3964 0.0306,-2.3866 1.4694,2.1506 6.3983,3.7205 4.0829,5.5225 z m -146.97,-1.679 h -2.5 l 1.25,-0.50439 1.25,-0.50438 1.25,0.50438 1.25,0.50439 z m 5.5,0.15789 h -0.5 v -1 h 1 v 1 z m 23,-0.41317 -18,0.002 17.399,-0.66512 18.601,0.66131 z m 19.269,0.41317 h -0.48424 l -0.64245,-6.1467 -0.64246,-6.1467 v -18.04 l 1.0307,1.0307 1.2227,29.303 z m 35.981,-0.34163 -23.25,-0.15837 -10.5,-0.60451 0.0153,-6.1977 0.0153,-6.1978 1.9387,3 0.26068,-2 -0.0718,-13 1.5736,11.462 4.7681,3.9712 -2.286,0.0666 -0.5645,1.4711 -0.5645,1.4711 3.0579,3.0579 4.3571,-0.0636 3.6814,-2.7895 -1.3254,-4.1759 -1.6713,1.0329 -4.6847,-1.8373 13,0.74406 23.703,0.27634 6.7325,2.813 1.5642,-0.0306 -2.7702,-1.7544 4.7702,-2.5144 1.4694,-2.2006 0.0153,7.1584 0.0153,7.1584 z m -31.917,-1.6584 h 0.83334 v -2.912 l -1.6667,1.0301 v 1.882 z m 7.5833,-0.0789 1.9167,0.0789 -1.2083,-1.2083 -2.625,1.0504 z m 42.083,-3.9211 h 0.5 v -1 h -1 v 1 z m 8.2234,3.25 -0.40333,3.25 v -13 l 0.40333,3.25 0.40332,3.25 z m 42.777,2.75 h -0.5 v -1 h 1 v 1 z m -226.5,-1 h -1.3333 l 1.3333,-1.3333 1.3333,1.3333 z m 213.5,0 h -0.5 v -1 h 1 v 1 z m 12.167,-1.3333 -0.66667,0.66667 v -2.6667 l 1.3333,1.3333 z m -252.06,-0.9375 -0.60417,0.60417 0.1579,-3.8333 1.0504,2.625 z m 144.95,0.27083 h -0.21785 l -0.83333,-0.73254 -138.01,-1.1438 -3.6607,-1.4047 1.1334,-13.219 1.2665,-31 54.275,-0.59962 77,2.0811 2.5,3.4007 -0.44956,34.118 -0.29883,-17.25 -0.29884,-17.25 h -2.0708 l 1.2361,-2 -7.618,0.1406 4,1.7188 -3,0.1712 2.2237,1.4694 0.49672,3 0.49672,3 1.3872,3.2142 -5.6043,2.2394 -13,2.0163 -28,7.1697 -13,2.6928 -17,3.1385 -14.563,1.3222 -0.52747,0.85347 -0.52747,0.85346 h 6.9514 l 0.33333,0.94996 0.33333,0.94996 62,2.034 26.498,0.56604 0.002,3.9 1.0082,-1.0082 1.0082,-1.0082 0.51535,-13.942 0.51536,-13.942 0.97992,-10.581 -1.1632,-2.2095 -1.1632,-2.2095 -2.2006,-1.4694 -31,-0.20584 -10,-1.7249 33,0.67698 -6,-1.7089 8,0.98698 10,0.9165 -5,-1.8481 12.256,0.33541 -0.30133,1.5206 -0.30134,1.5206 -0.28838,5 -2.2378,-4.6513 2.8732,-2.0009 -1.5,0.40778 -1.5,0.40777 -0.79361,6.4184 -0.79362,6.4184 0.85626,37.5 z m -56.385,-2 h 6.8333 v -2 l 10.5,0.30039 -9,1.1996 43,0.1135 -27,-1.2024 24.5,-0.41108 -0.006,-1.5 -68.494,-0.35144 -60.311,-2.6486 0.92883,1.5 h -2.118 v -2 h -4 v 5.118 l 1,-0.61804 1,-0.61803 v 2.1822 l 75.029,-0.36847 1.3043,1.3043 z m -3.1667,-1.2724 h -4.5 l 4.5,-0.86674 4.5,0.86674 z m -34.809,-0.79792 -0.69098,-0.0703 -4,-1.7188 6.618,-0.1406 -1.2361,2 z m 93.309,2.0703 h 0.5 v -1 h -1 v 1 z m -139,-8 h 0.5 v -1 h -1 v 1 z m 33,-2.2522 4,0.0202 -3.4767,-0.91015 -4.5233,0.86979 z m -30,-31.748 h 0.5 v -1 h -1 v 1 z m 136.17,-3.3333 0.66666,-0.66667 -1.3333,-1.3333 v 2.6667 z m -2.1667,-1.6667 h 0.5 v -1 h -1 v 1 z m 91,48.93 -1,-0.0255 -8.4654,-2.968 -5.3266,-4.9366 1.792,0.0678 7.5329,3.5659 -1.472,1.472 2.939,-1.0702 5,3.92 z m 3,-0.93003 h -0.5 v -1 h 1 v 1 z m -3,-2 h -0.5 v -1 h 1 v 1 z m -232.86,-1 h -0.40849 l -1.3497,-4.5 -0.1918,-8.8456 -0.1918,-8.8456 1.5,-0.9269 0.09968,-4.691 0.09968,-4.691 1.6013,5 -0.073,10 -0.86674,-4.5 h -2.0749 l 1.4063,3.5 0.42897,9.25 0.42897,9.25 z m 230.86,0 h -0.5 v -1 h 1 v 1 z m -2,-1 h -0.5 v -1 h 1 v 1 z m 5.6241,-0.73333 -1.2426,1.2333 0.68278,-1.7931 0.68279,-1.7931 1.1196,1.1196 z m -7.6241,-0.26667 h -0.5 v -1 h 1 v 1 z m 5.3922,-0.55888 -0.49901,0.49901 -3.4465,-4.0252 -1.9467,1.2031 v -2.2361 l -1.1545,0.71353 -1.1545,0.71352 1.3527,-2.1887 6.7023,2.8004 1.104,-1.104 -0.22935,1.5627 -0.22936,1.5627 z m -0.39222,-0.44112 h 0.5 v -1 h -1 v 1 z m -7,0 h -0.5 v -1 h 1 v 1 z m -7.691,-1.0153 -0.30902,-0.0153 -3,-1.9388 2.382,-0.0306 1.2361,2 z m 4.691,0.0153 h -0.5 v -1 h 1 v 1 z m 22,0 h -0.5 v -1 h 1 v 1 z m -24,-1 h -0.5 v -1 h 1 v 1 z m -222.9,-1.2708 -0.60417,0.60417 0.1579,-3.8333 1.0504,2.625 z m 214.98,-0.28832 -2.5883,0.28413 v -2.939 l 3.1636,1.214 h 3.1698 l -0.57836,0.57837 -0.57836,0.57836 z m 28.912,0.55915 h -0.5 v -1 h 1 v 1 z m -89.765,-5.25 -0.37454,4.75 v -19 l 0.74908,9.5 z m 50.765,3.25 h -0.5 v -1 h 1 v 1 z m 20.635,-0.52605 -2.1353,0.41122 v -1.6352 h 5.0833 l -0.81272,0.81272 z m -3.4686,-0.80728 -0.66667,0.66667 v -2.6667 l 1.3333,1.3333 z m 16.833,0.33333 h -0.5 v -1 h 1 v 1 z m -34.309,-1.0078 -1.691,-0.008 -2.1493,-4.64 2.3247,0.44438 2.3246,0.44439 v 2.8849 l 1.1545,-0.71353 1.1545,-0.71352 -1.427,2.309 z m -0.69098,-1.9922 h 0.5 v -1 h -1 v 1 z m -3,1 h -0.5 v -1 h 1 v 1 z m 17.122,0 h -0.37755 l -2.5278,-3.0458 3.2829,1.2598 v 1.786 z m 13.878,-2 h -0.5 v -1 h 1 v 1 z m -2,-1 h -0.5 v -1 h 1 v 1 z m -26,-1 h -0.5 v -1 h 1 v 1 z m 24,0 h -0.5 v -1 h 1 v 1 z m -233.84,-1.75 -0.50439,1.25 v -5 l 1.0088,2.5 z m 207.84,0.75 h -0.5 v -1 h 1 v 1 z m 14.472,0 h -0.50765 l -7.2122,-4.9008 -1.1502,-2.9973 2.8867,1.1077 -0.55327,0.89522 -0.55327,0.89521 h 2.2053 l 5.3923,5 z m 9.5281,0 h -0.5 v -1 h 1 v 1 z m -15,-1 h -0.5 v -1 h 1 v 1 z m -2,-1 h -0.5 v -1 h 1 v 1 z m 12,-1 h -0.5 v -1 h 1 v 1 z m -13.5,-1.0544 -0.5,0.0295 -8.079,-7.4751 -7.921,-6.4329 2.3124,-0.067 14.688,13.916 z m 10.622,-0.94555 h -0.37755 l -1.3724,-1.75 -1.3724,-1.75 3.5,2.7449 v 0.75511 z m -216.94,-4.2383 -0.45508,1.7383 0.04036,-8 0.4349,2.2617 0.4349,2.2617 z m 205.47,0.23834 h -0.84502 l -3.81,-4.3096 5.5,3.5396 v 0.76998 z m -56.153,-3.1106 -0.94125,1.6106 0.0791,-6 0.0792,-6 0.86209,4.3894 0.8621,4.3894 z m -155.34,-0.63944 -0.50439,1.25 v -5 l 1.0088,2.5 z m 158.84,-0.25 h -0.5 v -1 h 1 v 1 z m 56.059,0 h -0.44099 l -1.427,-2.309 1.1545,0.71352 1.1545,0.71353 v 0.88196 z m -7.9366,-1 h -0.37755 l -1.3724,-1.75 -1.3724,-1.75 3.5,2.7449 v 0.75511 z m -4.8228,-3.0222 -0.29969,-0.0222 -5,-3.8477 3.7248,0.54248 0.93731,1.6749 0.9373,1.6749 z m -7.133,-1.3111 -0.66667,0.66667 v -2.6667 l 1.3333,1.3333 z m -185.12,-0.66667 h -0.21545 l -0.66667,-0.66666 -0.66667,-0.66667 0.01531,-2.0833 0.01531,-2.0833 1.8499,-2.9247 -0.11628,8.4247 z m 182.89,-1.0354 -0.94113,-0.0354 -5,-2.8582 3,-0.008 3.8823,2.9364 z m 14.118,0.0354 h -0.44099 l -1.427,-2.309 1.1545,0.71352 1.1545,0.71353 v 0.88196 z m -205.95,-2.2708 -0.60417,0.60417 0.1579,-3.8333 1.0504,2.625 z m 140.9,0.27083 h -0.5 v -1 h 1 v 1 z m 17.718,-0.81795 -0.96961,0.9696 1.1523,-5.6516 0.39346,1.8562 0.39345,1.8562 z m 35.282,0.81795 h -0.5 v -1 h 1 v 1 z m 2,0 h -0.5 v -1 h 1 v 1 z m -47.833,-1.3333 -0.66667,0.66667 v -2.6667 l 1.3333,1.3333 z m 5.8333,0.33333 h -0.5 v -1 h 1 v 1 z m 31.059,0 h -0.44099 l -1.427,-2.309 1.1545,0.71352 1.1545,0.71353 v 0.88196 z m -178.95,-1.2708 -0.60417,0.60417 0.1579,-3.8333 1.0504,2.625 z m 175.4,0.27083 h -1 v -2.118 l 1,0.61803 1,0.61804 v 0.88196 z m 11.5,0 h -0.5 v -1 h 1 v 1 z m -15.5,-1 h -1 v -2.118 l 1,0.61803 1,0.61804 v 0.88196 z m 11.382,0 h -0.5 l 1.2361,-2 h 1 l -1.2361,2 z m 11.177,0 h -0.44099 l -1.427,-2.309 1.1545,0.71352 1.1545,0.71353 v 0.88196 z m -53,-1 h -0.44099 l -1.427,-2.309 1.1545,0.71352 1.1545,0.71353 v 0.88196 z m 13.941,0 h -0.5 v -1 h 1 v 1 z m 12,-0.1655 -1,-0.13488 -9,-1.3992 8,-0.26976 1.5,0.96937 1.5,0.96938 z m 14,0.1655 h -0.5 v -1 h 1 v 1 z m -2.118,-1 h -0.5 l 1.2361,-2 h 1 l -1.2361,2 z m -41.382,-1 h -1.3333 l 1.3333,-1.3333 1.3333,1.3333 z m 14.836,-0.9642 -2.3356,1.1978 3.4524,-3.6146 1.2189,1.2189 z m 21.164,0.9642 h -1.3333 l 1.3333,-1.3333 1.3333,1.3333 z m 16.5,0 h -0.5 v -1 h 1 v 1 z m -185.5,-1 h -1.3333 l 1.3333,-1.3333 1.3333,1.3333 z m 80.5,-0.37406 -11,-0.004 11.573,-0.72382 10.427,0.73202 z m 82.5,0.21617 h -2.5 l 1.25,-0.50439 1.25,-0.50438 1.25,0.50438 1.25,0.50439 z m 10.5,0.15789 h -0.5 v -1 h 1 v 1 z m 10,0 h -0.5 v -1 h 1 v 1 z m -13,-1 h -0.5 v -1 h 1 v 1 z m -84,-1.2522 -4,-0.0202 4.5233,-0.86979 1.7383,0.45507 1.7383,0.45508 z m 71.25,0.23687 -0.75,0.0153 v -2 l 4.5,0.0306 -3,1.9388 z m 8.75,0.0153 h -0.5 v -1 h 1 v 1 z m 14,0 h -0.5 v -1 h 1 v 1 z m -190,-1 h -0.5 v -1 h 1 v 1 z m 188,0 h -0.5 v -1 h 1 v 1 z m -182.12,-1 h -0.5 l 1.2361,-2 h 1 l -1.2361,2 z m 52.118,-0.30986 -6,-0.0102 6.5358,-0.80931 5.4642,0.82972 z m 22,-0.0901 -15,-0.003 15.591,-0.68329 14.409,0.68838 z m 106,0.39994 h -0.5 v -1 h 1 v 1 z m -3,-1 h -0.5 v -1 h 1 v 1 z m -181.83,-1.3333 -0.66667,0.66667 v -2.6667 l 1.3333,1.3333 z m 178.83,0.33333 h -0.5 v -1 h 1 v 1 z m -3.5,-1 h -1.3333 l 1.3333,-1.3333 1.3333,1.3333 z m -8,-1.1579 h -2.5 l 1.25,-0.50439 1.25,-0.50438 1.25,0.50438 1.25,0.50439 z m -166.5,-0.84211 h -0.5 v -1 h 1 v 1 z m 50.5,-0.44679 h -32.5 l 32.5,-0.60268 32.5,0.60268 z"
         fill="#c9c9c9"
         id="path1" />
      <path
         d="m 133.25,324.1 -32,-0.10388 -113,-1.025 13,-1.2325 -25,0.61663 -4,-1.7435 14,-0.28151 9.8073,-1.0191 9.1927,2.66 150,0.126 10,2.1068 z m 47.083,0.35579 -5.9167,0.0153 0.83333,-0.73535 13.782,-1.057 -1.391,0.88086 -1.391,0.88085 z m 12.417,-1.2167 h -3.5 l 3.5,-0.91464 3.5,0.91464 z m -33,-0.768 h -1.3333 l 1.3333,-1.3333 1.3333,1.3333 z m 46.809,-0.1419 -6.309,-0.14191 8,-1.4324 -16,-0.59606 20.562,-1.9655 4.4375,2.1424 -5.618,0.1354 1.2361,2 z m -170.73,-0.9581 -18.417,0.1 1.2678,-1.2678 5.5655,-0.64856 95,-2.3743 14,1.6982 -79,2.3925 z m 155.42,-0.9 h -0.5 v -1 h 1 v 1 z m -208.01,-1.6484 -10.991,0.501 12,-1.6355 10.833,-0.21707 -0.42529,0.4253 -0.42529,0.42529 z m 160.93,0.56947 -1.9167,-0.079 2.625,-1.0504 1.2083,1.2083 z m 44.083,0.0789 h -0.5 v -1 h 1 v 1 z m -165.56,-1 h -1.059 l 1.2361,-2 h 0.88197 v 2 z m 3.559,0 h -0.5 v -1 h 1 v 1 z m 10,-0.34281 -8,-0.007 8.5529,-0.76816 7.4471,0.78137 z m 126.44,0.34281 h -1.059 l 1.2361,-2 h 0.88197 v 2 z m 28.559,0 h -0.5 v -1 h 1 v 1 z m 2,0 h -0.5 v -1 h 1 v 1 z m -40.5,-1.2724 h -4.5 l 4.5,-0.86674 4.5,0.86674 z m 5.5,0.27236 h -0.5 v -1 h 1 v 1 z m -163.94,-1 h -0.44098 l -0.71353,-1.1545 -0.71353,-1.1545 1.1545,0.71352 1.1545,0.71353 v 0.88196 z m 10,0 H 3.86902 l -0.71353,-1.1545 -0.71353,-1.1545 1.1545,0.71352 1.1545,0.71353 v 0.88196 z m 157,-1 h -0.44099 l -1.427,-2.309 1.1545,0.71352 1.1545,0.71353 v 0.88196 z m 28.941,0 h -0.5 v -1 h 1 v 1 z m -173.09,-1 h -0.34617 l 1.1512,-3 h 2.0309 l -2.4898,3 z m -24.85,-1 h -0.44098 l -0.71353,-1.1545 -0.71353,-1.1545 1.1545,0.71352 1.1545,0.71353 v 0.88196 z m 184.44,0 h -1.3333 l 1.3333,-1.3333 1.3333,1.3333 z m -147.33,-1.8245 -2.8258,0.57615 1.9392,-1.9392 3.7124,0.78691 z m 143.83,0.8245 h -0.5 v -1 h 1 v 1 z m 19,0 h -0.5 v -1 h 1 v 1 z m -34,-1 h -0.5 v -1 h 1 v 1 z m 20.284,-0.2511 -4.2641,0.39741 1.0458,-1.0458 7.0073,-0.71886 2.9266,-1.6751 -2.4515,2.6449 z m -170.58,-1.1936 -2.7049,0.16365 -2.5229,-0.89322 -2.2681,-4.3257 3.791,3.3442 5.3267,1.3291 4.34,-4.34 0.84559,0.84559 -4.1025,3.7127 z m 12.295,0.44473 h -0.5 v -1 h 1 v 1 z m 59.5,-0.39172 h -13.5 l 13.5,-0.69966 13.5,0.69966 z m 69.5,0.39172 h -0.5 v -1 h 1 v 1 z m 4.5,-0.232 h -3.5 l 3.5,-0.91464 3.5,0.91464 z m 19.5,0.232 h -0.5 v -1 h 1 v 1 z m 21.58,-1.7312 -2.3683,0.61932 2.1131,-2.1131 2.6234,0.87448 z m -205.58,-0.26879 h -0.5 v -1 h 1 v 1 z m 32,0 h -0.5 v -1 h 1 v 1 z m 149.27,-0.45773 -0.27354,0.25602 -2.4801,-2.6926 1.7705,-1.0942 0.62832,1.6374 0.62833,1.6374 z m 6.7265,0.45773 h -0.5 v -1 h 1 v 1 z m 27,-0.28601 -5,-0.0137 5.5275,-0.83583 4.4725,0.86313 z m -223.5,-0.98635 h -4.5 l 4.5,-0.86674 4.5,0.86674 z m 204.5,0.27236 h -0.5 v -1 h 1 v 1 z m 25.882,0 h -0.5 l 1.2361,-2 h 1 l -1.2361,2 z m -254.38,-1 h -1.3333 l 1.3333,-1.3333 1.3333,1.3333 z m 53.031,0 H 8.81088 l 1.1512,-3 h 0.78602 v 3 z m 49.135,0 h -23.167 l 0.116,-3.25 0.116,-3.25 0.89655,3.406 3.3714,1.0426 40.82,1.0384 1.013,1.013 z m 120.33,0 h -0.5 v -1 h 1 v 1 z m -149,-1 h -0.5 v -1 h 1 v 1 z m 70.5,-0.36049 h -9.5 l 9.5,-0.74909 9.5,0.74909 z m 11.5,0.36049 h -0.5 v -1 h 1 v 1 z m 20.532,-0.22412 -17.532,-0.22412 33.5,-0.60011 v -1.7068 l -1.453,-1.2059 -1.453,-1.2059 -20.594,1.2732 -4.6676,0.97389 1.2856,-2.0802 -2.309,-0.0789 -2.309,-0.079 2.5125,-1.0129 -0.56525,-0.91459 -0.56524,-0.91459 h -1.882 l -0.10957,3.25 -0.10956,3.25 -1.771,-9 0.83228,-2 0.0789,1.789 0.079,1.789 32.5,-0.0684 4.4557,0.20482 -0.98464,1.8398 -0.98465,1.8398 -0.21129,2.553 -0.2113,2.553 z m 16.468,-3.7759 h 0.5 v -1 h -1 v 1 z m -25,-3 h 0.5 v -1 h -1 v 1 z m 9,0 h 0.5 v -1 h -1 v 1 z m 19.441,7 h -1.059 l 1.2361,-2 h 0.88197 v 2 z m -199.44,-1 h -0.5 v -1 h 1 v 1 z m 225.25,-0.13618 -2.75,0.13618 -0.23684,-1.5 0.3797,-2 -2.5429,2.5 h -1.906 l 4.6892,-4.0669 2.7804,1.0669 2.3364,0.0306 -2.9472,1.8638 -0.76108,-1.1972 -0.76108,-1.1972 -0.0306,3.3609 4.5,0.86674 z m 35.75,0.13618 h -0.5 v -1 h 1 v 1 z m -101.3,-1.8 -1.2,1.2 v -4.8 l 2.4,2.4 z m 70.467,0.46667 -0.66667,0.66667 v -2.6667 l 1.3333,1.3333 z m -73.95,-2.5025 -0.44462,2.3359 -0.27072,-2 -46.852,0.56977 -24.248,-1.7389 -3.3166,-3.3166 2.4642,-2.4642 4.4501,2.8002 68,0.87249 0.66161,0.60551 z m -45.717,-1.5246 h 9.5 l -9.5,-0.74909 -9.5,0.74909 z m 20,0.0243 h 7.5 l -7.5,-0.78453 -7.5,0.78453 z m 21,0.0638 h 4.5 l -4.5,-0.86674 -4.5,0.86674 z m -66.382,-0.72764 h 1.5 l -1.2361,-2 h -3 l 1.2361,2 z m 9.382,-0.232 h 3.5 l -3.5,-0.91464 -3.5,0.91464 z m 137.5,4.232 h -0.5 v -1 h 1 v 1 z m -31.098,-3.5 -1.4132,3 1.1739,-5.9959 0.83743,-0.83743 0.81513,0.83333 z m 16.157,2.5 h -0.44099 l -1.427,-2.309 1.1545,0.71352 1.1545,0.71353 v 0.88196 z m 45.941,0 h -0.5 v -1 h 1 v 1 z m -209,-1 h -0.5 v -1 h 1 v 1 z m -55,-1 h -0.5 v -1 h 1 v 1 z m 78.307,-0.47353 -0.5598,0.55979 -1.3656,-3.5863 2.4852,2.4667 z m 151.86,0.1402 h -1.3333 v -2.6349 l 2.6667,2.2131 v 0.42178 z m 34.833,0.33333 h -0.5 v -1 h 1 v 1 z m -203.76,-1.4093 -0.45764,0.45764 -2.5299,-3.0483 h 2.1269 l 1.3183,2.1331 z m 159.76,0.4093 h -0.5 v -1 h 1 v 1 z m 4.4757,0 h -1.1424 l 0.39584,-1.1875 0.39583,-1.1875 2.425,-0.475 -2.0625,1.0208 0.56525,0.91458 0.56524,0.91459 z m -176.48,-1 h -0.5 v -1 h 1 v 1 z m 188.33,-0.54613 -0.33102,0.28257 -4.8561,-5.9827 -6.1439,-2.6754 3,-0.0708 6.3724,3.8855 2.2897,4.2783 z m -237.18,-1.1848 -0.49804,1.231 0.0741,-6 0.92198,3.5381 z m 30.344,0.73096 h -1.3333 l 1.3333,-1.3333 1.3333,1.3333 z m 3.5,0 h -0.5 v -1 h 1 v 1 z m 179.77,-3 -3.7046,3.5 3.0771,-4.8534 4.3534,-2.8906 -0.0212,0.74394 z m 8.7259,3 h -1.3333 l 1.3333,-1.3333 1.3333,1.3333 z m 43.667,-0.33333 -0.66667,0.66667 v -2.6667 l 1.3333,1.3333 z m -187.95,-0.68198 -0.21862,-0.0153 -2.7135,-1.7194 2.004,-1.2385 1.1468,2.9885 z m 118.78,0.0153 h -0.5 v -1 h 1 v 1 z m -114.69,-1.4735 -0.5598,0.55979 -1.3656,-3.5863 2.4852,2.4667 z m 121.19,0.47353 h -1.3333 l 1.3333,-1.3333 1.3333,1.3333 z m -168.46,-1.0304 -0.0372,-0.0304 -3.5158,-2.0474 -1.7995,1.1121 -4.6847,-2.0436 9.4183,0.78486 0.87787,-2.2451 -0.11088,2.25 -0.11088,2.25 z m 49.963,0.0304 h -0.5 v -1 h 1 v 1 z m -69.75,-1.16 -9.75,0.16003 -0.0042,-1.5 13.504,0.55194 6,0.62799 z m 59.632,0.16003 h -0.5 l 1.2361,-2 h 1 l -1.2361,2 z m 18.118,0 h -0.5 v -1 h 1 v 1 z m 6.5,0 h -1.3333 l 1.3333,-1.3333 1.3333,1.3333 z m 56,0 h -1.3333 l 1.3333,-1.3333 1.3333,1.3333 z m 46.382,0 h -0.5 l 1.2361,-2 h 1 l -1.2361,2 z m 3.118,0 h -0.5 v -1 h 1 v 1 z m -204,-2 h -0.5 v -1 h 1 v 1 z m 80.155,-1.5433 -1.3447,1.839 -1.192,-4.5581 34.381,1.2193 24,0.4036 -10,1.1232 30,1.1528 -74.5,0.1202 v -3.139 z m 86.345,1.3113 h -3.5 l 3.5,-0.91464 3.5,0.91464 z m 20.559,0.0147 -13.059,-0.21733 26,-0.60294 2.4793,-3.3164 0.75877,0.75876 0.75876,0.75876 -1.9396,1.4182 -1.9396,1.4182 z m 17.441,0.21733 h -1.3333 l 1.3333,-1.3333 1.3333,1.3333 z m 61.689,-1.25 -0.45733,1.75 v -7 l 0.45733,1.75 0.45732,1.75 z m -46.415,0.25 h -2.6076 l 0.41666,-0.35932 0.41667,-0.35932 5.6676,-1.3615 -1.2856,2.0802 z m -218.59,-2.2383 -0.45508,1.7383 0.04036,-8 0.4349,2.2617 0.4349,2.2617 z m 33.813,1.2383 h -0.5 v -1 h 1 v 1 z m 2,0 h -0.5 v -1 h 1 v 1 z m 36,0 h -0.5 v -1 h 1 v 1 z m 83,0 h -0.5 v -1 h 1 v 1 z m 3.1042,-0.27083 -0.60417,0.60417 0.1578,-3.8333 1.0504,2.625 z m -87.973,-0.72917 h -0.38603 l -1.2649,-1.5242 -1.2649,-1.5242 0.86071,-0.86071 2.4412,3.909 z m 136.07,-1.1004 -2.2045,1.3239 3.4524,-3.6045 0.95666,0.95666 z m -170.55,-0.89961 h -0.5 l 4.6973,-5 h 1 l -4.6973,5 z m 168.16,0 h -0.31291 l 0.5,-2.2343 -3.5095,-0.59011 1.1276,1.8244 h -39.261 l -2.8571,-2.8571 v -5.2857 l 2.7619,-2.7619 0.78239,0.78239 50.46,0.45119 1.3288,-1.3288 -11.833,-0.34941 8.8396,-0.78217 4.6175,1.1589 -3.2511,3.7971 -3.034,-1.1642 1.4461,2.3399 h -4.118 v 2.118 l 2.5,-1.4274 -5.8742,6.3093 z m 1.096,-2 h 0.34617 l 2.4898,-3 h -2.0309 l -1.1512,3 z m -0.90894,-3 h 0.5 v -1 h -1 v 1 z m -42.833,-1.3333 0.66666,-0.66667 -1.3333,-1.3333 v 2.6667 z m 44.833,-0.66667 h 0.5 v -1 h -1 v 1 z m -48.699,5.6232 -0.80071,0.49487 v -13.718 l -2.4,-2.4 h 2.2449 l 2.2474,6.8096 -0.24543,4.1594 -0.24542,4.1594 z m 78.521,0.34503 -0.82143,-0.0318 -3.8823,-2.9364 h 2.5251 l 3,3 z m -194.82,-0.9682 h -0.5 v -1 h 1 v 1 z m 23.882,0 h -0.5 l 1.2361,-2 h 1 l -1.2361,2 z m 10.118,0 h -0.5 v -1 h 1 v 1 z m 25.5,-0.42751 h -22.5 l 22.5,-0.63799 22.5,0.63799 z m 31.417,0.34857 -1.9167,-0.079 2.625,-1.0504 1.2083,1.2083 z m 78.083,0.0789 h -0.5 v -1 h 1 v 1 z m -183.69,-1.1183 -6.691,0.11831 -0.94066,-1.522 -12.177,0.39314 v -4.116 l 3.1312,2.5986 -0.63115,-5.8537 h 27 l 6.1667,0.6799 v 2.7884 l -1.2166,-1.0096 -1.2166,-1.0096 -1.2107,3.1549 2.4771,-1.4245 -0.83333,0.91033 -0.83333,0.91032 -1.8333,0.25 -2.118,0.25 1.1507,1.8618 -2.3416,1.4472 1.4271,-2.309 -8.618,0.23663 6,1.5268 z m 47.07,-0.32818 -1.3785,0.83041 2.7829,-3.4297 -3.2829,1.2598 v -2.0792 l -4.2643,-1.3534 1.3821,-0.92106 1.3821,-0.92105 -5.5,1.2776 v -2.2168 h 6 v 2 h 2.118 l -0.92784,-1.5 69.31,0.43636 6,-1.6001 6.423,1.701 -0.56846,1.4814 -0.56847,1.4814 h 2.214 v 3.754 l -19.5,-0.65083 -60.243,-0.38006 z m 42.538,-1.6324 1.9167,0.0789 -0.60417,-0.60416 -0.60417,-0.60417 -2.625,1.0504 z m 8,0 1.9167,0.0789 -0.60417,-0.60416 -0.60417,-0.60417 -2.625,1.0504 z m -51.035,-1.9211 h 0.5 l 1.2361,-2 h -1 l -1.2361,2 z m 29.618,-0.27236 h 4.5 l -4.5,-0.86674 -4.5,0.86674 z m 18.75,0.20208 1.25,0.0703 v -2 l -6.5,0.1406 4,1.7188 z m 90.75,4.0397 h -1 l 1.5,-0.96938 1.5,-0.96937 h 2 l -3,1.9388 z m 31.148,-0.13244 -3.5151,-0.23673 0.0518,-0.5501 0.0518,-0.55011 -0.11842,-1.309 -0.11842,-1.309 -1.0163,0.62812 -1.0163,0.62811 1.3416,2.1708 -2.3416,-1.4472 0.67268,-1.0884 0.67268,-1.0884 -4.3155,1.1285 1.1208,-1.8135 -2.618,-0.23684 -0.79795,0.13441 -0.79796,0.1344 -12.98,-2.3917 1.3831,-3.1403 0.9336,-13.767 -2.2408,1.3849 v -6.118 h 1.8128 l -0.5269,2.0149 -0.5269,2.0149 1.3705,-0.51067 1.3705,-0.51066 10.5,6.0321 v 1.7435 l 12.092,3.6222 1.2039,1.4842 1.2039,1.4842 -3.6039,-1.3516 0.6361,1.0292 0.63609,1.0292 4.0822,-1.2956 -1.3685,2.2143 h 2.118 v 9.214 l -1.5519,-0.59553 -1.5519,-0.59554 1.2674,2.0508 z m -24.148,-7.8369 h 0.5 v -1 h -1 v 1 z m 15.417,-1.1726 2.4167,0.17259 -1.219,-1.219 -14.595,-1.6021 -1.0098,0.66057 -1.0098,0.66056 13,1.1548 z m 18.583,9.1726 h -0.5 v -1 h 1 v 1 z m 6,0 h -0.5 v -1 h 1 v 1 z m 5,0 h -0.5 v -1 h 1 v 1 z m -219,-1 h -0.5 v -1 h 1 v 1 z m 16,0 h -0.5 v -1 h 1 v 1 z m 189.22,-2.25 -0.41659,2.75 v -11 l 0.83318,5.5 z m -245.05,0.91667 -0.66667,0.66667 v -2.6667 l 1.3333,1.3333 z m 43.333,0.33333 h -1.3333 l 1.3333,-1.3333 1.3333,1.3333 z m 8.5,0 h -0.5 v -1 h 1 v 1 z m 13.309,-0.0153 -0.30902,-0.0153 -3,-1.9388 2.382,-0.0306 1.2361,2 z m 146.69,0.0153 h -0.5 v -1 h 1 v 1 z m 2,0 h -0.5 v -1 h 1 v 1 z m -159,-1 h -0.5 v -1 h 1 v 1 z m -13,-1 h -0.5 v -1 h 1 v 1 z m 3.5,0 h -1.3333 l 1.3333,-1.3333 1.3333,1.3333 z m 4.4167,-0.0789 -1.9167,-0.079 2.625,-1.0504 1.2083,1.2083 z m 11.083,0.0789 h -0.5 v -1 h 1 v 1 z m 166,0 h -0.5 v -1 h 1 v 1 z m 27.104,-0.27083 -0.60417,0.60417 0.079,-1.9167 0.0789,-1.9167 1.0504,2.625 z m -253.31,-1.2935 -1.7931,0.68279 2.4667,-2.4852 0.55979,0.55979 0.5598,0.5598 z m 57.207,0.56429 h -0.5 v -1 h 1 v 1 z m 156,0 h -0.5 v -1 h 1 v 1 z m 44.167,-0.33333 -0.66667,0.66667 v -2.6667 l 1.3333,1.3333 z m -217.36,-0.68198 -1.191,0.0153 -1.2448,-2.0141 2.9813,-1.144 4.6455,0.8858 -7,0.30299 1.5,0.96937 1.5,0.96938 z m 13.691,0.0153 h -1.3333 l 1.3333,-1.3333 1.3333,1.3333 z m 95.5,0 h -0.5 v -1 h 1 v 1 z m 97,0 h -0.5 v -1 h 1 v 1 z m -199.5,-1 h -1.3333 l 1.3333,-1.3333 1.3333,1.3333 z m 149,-2 h -1.3333 l 1.3333,-1.3333 1.3333,1.3333 z m 51.667,-0.33333 -0.66667,0.66667 v -2.6667 l 1.3333,1.3333 z m 2.8333,0.33333 h -0.5 v -1 h 1 v 1 z m 2,0 h -0.5 v -1 h 1 v 1 z m -154.6,-1.2414 -43.402,-0.21232 39,-1.1118 -42,-0.67961 -21,-1.4195 78.5,-0.33543 v 1.5 l 6.5,0.32882 24.6,0.93821 1.2039,1.2039 z m 6.0979,-1.9165 h 2.5 l -2.5,-1.0088 -2.5,1.0088 z m 42.333,2.1579 h -3.6667 l 0.83333,-0.71271 6.5,-1.2373 v 1.95 z m 15.167,-0.34281 -8,-0.007 8.5529,-0.76816 7.4471,0.78137 z m 95.167,0.009 -0.66667,0.66667 v -2.6667 l 1.3333,1.3333 z m -251.67,-1.3769 -2,0.52302 v -1.8128 h 4 v 0.76674 z m 26.5,0.3157 -14,0.003 13.412,-0.69766 14.588,0.69199 z m 174.92,0.31561 -1.9167,-0.079 2.625,-1.0504 1.2083,1.2083 z m 3.0833,0.0789 h -0.5 v -1 h 1 v 1 z m 40,0 h -0.5 v -1 h 1 v 1 z m -89,-1.2522 -4,-0.0202 4.5233,-0.86979 1.7383,0.45507 1.7383,0.45508 z m 8.5,-0.0202 h -4.5 l 4.5,-0.86674 4.5,0.86674 z m 75.5,0.27236 h -0.5 v -1 h 1 v 1 z m 3.155,0 h -0.34502 l -3.81,-4.5 4.5,3.81 v 0.69002 z m -227.9,-1.1362 -9.75,0.13618 v -1.5389 l 15.5,0.62515 4,0.64135 z m 96.75,0.13618 h -0.5 v -1 h 1 v 1 z m 4.5,-0.15789 h -2.5 l 1.25,-0.50439 1.25,-0.50438 1.25,0.50438 1.25,0.50439 z m 8.4167,0.079 -1.9167,-0.079 2.625,-1.0504 1.2083,1.2083 z m 121.14,0.0789 h -0.44099 l -1.427,-2.309 1.1545,0.71352 1.1545,0.71353 v 0.88196 z m 4.941,0 h -0.5 v -1 h 1 v 1 z m -249.72,-1.116 -2.7186,0.116 1.161,-3.0255 -0.95664,-1.2373 -0.95664,-1.2373 -0.64378,-1.8019 -0.64378,-1.8019 0.98854,0.61095 0.98855,0.61096 v 2.7639 l 2.309,1.427 -0.65645,-1.0622 -0.65645,-1.0622 1.8771,-4.6847 0.12678,6.3333 1.25,0.50438 1.25,0.50439 -1.75,0.079 -1.75,0.0789 v 1.8534 l 3.5,0.91464 z m 150.05,0.116 h -0.83333 v -1.882 l 0.83333,-0.51503 0.83334,-0.51503 v 2.912 z m 7.5833,-0.0789 -1.9167,-0.079 2.625,-1.0504 1.2083,1.2083 z m 79.265,0.0789 h -0.56343 l -1.5618,-2.5 -0.19034,-1.2548 -0.19033,-1.2548 0.97875,0.6049 0.97874,0.6049 -1.1157,1.1157 2.2275,2.684 z m -134.68,-1 h -1.3333 l 1.3333,-1.3333 1.3333,1.3333 z m 24.5,-0.40478 -16,-0.002 16.595,-0.67532 15.405,0.67993 z m -102.5,-0.98694 h -13.5 l 13.5,-0.69966 13.5,0.69966 z m 19,0.23383 h -2.5 l 1.25,-0.50439 1.25,-0.50438 1.25,0.50438 1.25,0.50439 z m 7.5,0.15789 h -0.5 v -1 h 1 v 1 z m 108,-0.19494 -3,-0.0371 1.769,-0.46099 1.769,-0.46098 2.4619,0.99608 z m 84,0.19494 h -0.5 v -1 h 1 v 1 z m -156.33,-1 h -6.8333 l -0.65214,-0.65213 -0.65214,-0.65214 -75.029,0.36847 v -2.1822 l -2,1.2361 v -5.118 h 4 v 2 h 2.118 l -0.92909,-1.5 59.311,2.5714 70,1.5841 -25,0.75561 27,1.2024 -43,-0.1135 9,-1.1996 -10.5,-0.30039 v 2 z m -3.1667,-1.2724 h 4.5 l -4.5,-0.86674 -4.5,0.86674 z m -34.809,-0.79792 0.69098,0.0703 1.2361,-2 -6.618,0.1406 2,0.85942 2,0.85943 z m 93.309,2.0703 h -0.5 v -1 h 1 v 1 z m 3.1042,-0.27083 -0.60417,0.60417 0.1578,-3.8333 1.0504,2.625 z m 9.8958,0.27083 h -0.5 v -1 h 1 v 1 z m 78,0 h -0.5 v -1 h 1 v 1 z m 8.309,-0.0525 -0.30902,-0.0524 -5,-3.3951 -0.67082,-1.5125 -1.8292,1.1305 v -2.2361 l -0.88669,0.54801 -0.8867,0.548 -2.4715,-2.978 h -1.6958 l -11.559,-5.2632 -1,-1.4337 -4.5914,0.36941 -8.8082,-8.4395 -0.77927,0.77927 -3.4938,-3.8606 3.1422,0.46118 5.0305,4.374 v 2.3955 l 3.1483,-3.8823 -0.60216,1.1998 -0.60217,1.1998 3.793,2.03 1.263,-1.263 v 1.9333 l -1.25,1.4018 -1.25,1.4018 1.6471,-1.2388 1.6471,-1.2388 9.1072,4.4246 -1.102,1.7832 1.3504,-0.30142 1.3504,-0.30141 6.5,2.7117 v 2.0907 l 0.62719,-0.6272 0.6272,-0.62719 8.6436,5.9469 0.61004,0.98706 0.61003,0.98706 z m -40.25,-22.948 h 0.44098 v -0.88196 l -2.309,-1.427 0.71353,1.1545 0.71352,1.1545 z m 46.941,23 h -0.5 v -1 h 1 v 1 z m -83.712,-1.8633 -0.43723,1.3117 -0.61932,-2.3683 -0.61931,-2.3683 2.1131,2.1131 z m 35.712,0.86329 h -0.5 v -1 h 1 v 1 z m 25,0 h -0.5 v -1 h 1 v 1 z m -88,-1 h -0.5 v -1 h 1 v 1 z m 17,0 h -0.5 v -1 h 1 v 1 z m 3,0 h -0.5 v -1 h 1 v 1 z m 73,0 h -0.5 v -1 h 1 v 1 z m 3,0 h -0.5 v -1 h 1 v 1 z m -32,-1.0856 -1,-0.055 -4,-1.7188 3,-0.11 1.5,0.96937 1.5,0.96938 z m 27,0.0856 h -0.5 v -1 h 1 v 1 z m 17.122,0 h -0.37755 l -1.3724,-1.75 -1.3724,-1.75 3.5,2.7449 v 0.75511 z m -90.122,-1 h -0.5 v -1 h 1 v 1 z m 71,0 h -0.5 v -1 h 1 v 1 z m -92.711,-1.4311 -2.2893,0.0689 -16,-0.5855 -67,-2.1287 -0.33333,-0.96178 -0.33333,-0.96179 H 5.6145 l 1.0549,-1.7069 14.563,-1.3222 17,-3.1385 13,-2.6928 28,-7.1697 13,-2.0163 5.6043,-2.2394 -0.69358,-1.6071 -0.69358,-1.6071 -0.99344,-6 -1.1119,-0.73468 -1.1119,-0.73469 3,-0.1712 -4,-1.7188 7.5,-0.1406 1.1719,4.9e-4 -0.0466,18.75 -0.0466,18.75 z m -1.2893,-34.568 h 0.5 v -1 h -1 v 1 z m 2.441,-1 h 1.059 v -2 h -0.88197 l -1.2361,2 z m 24.059,35.842 h -2.5 l 1.25,-0.50439 1.25,-0.50438 1.25,0.50438 1.25,0.50439 z m 69.5,0.15789 h -0.5 v -1 h 1 v 1 z m -77.616,-1.55 -0.88402,0.95 0.12517,-5.45 0.12516,-5.45 0.75885,4.5 0.75886,4.5 z m 15.616,0.55 h -0.5 v -1 h 1 v 1 z m 9.5,-0.34941 h -8.5 l 8.5,-0.76558 8.5,0.76558 z m 26.5,0.34941 h -0.5 v -1 h 1 v 1 z m 19,0 h -0.5 v -1 h 1 v 1 z m 5,0 h -0.5 v -1 h 1 v 1 z m -231,-1 h -0.5 v -1 h 1 v 1 z m 160,0 h -0.5 v -1 h 1 v 1 z m 48.893,0 h -0.39301 v -1.882 l 1.9771,-1.2219 -0.59553,1.5519 -0.59554,1.5519 z m 15.107,0 h -0.5 v -1 h 1 v 1 z m 5,0 h -0.5 v -1 h 1 v 1 z m 16,0 h -0.5 v -1 h 1 v 1 z m -238.78,-3.7277 -0.40166,3.2277 0.0162,-14 0.78718,7.5446 z m 1.7783,2.7277 h -0.5 v -1 h 1 v 1 z m 150,0 h -0.5 v -1 h 1 v 1 z m 63,0 h -0.5 v -1 h 1 v 1 z m 6,0 h -0.5 v -1 h 1 v 1 z m -78.454,-5.5 -0.77878,5 -0.0694,-29 0.65111,-5.5 0.6511,-5.5 h 2.8333 l 0.25834,1.275 0.25833,1.275 -1.0167,-2.05 h -1.8333 l -0.1752,29.5 z m 55.813,4.5 h -0.74099 l -1.427,-2.309 1.3062,0.80728 1.3062,0.80729 1.3483,-1.8439 1.3483,-1.8439 v 1.9822 l -2.4,2.4 z m 20.641,0 h -0.5 v -1 h 1 v 1 z m 17,0 h -0.5 v -1 h 1 v 1 z m -201,-1.2522 -4,-0.0202 4.5233,-0.86979 1.7383,0.45507 1.7383,0.45508 z m 110.17,-0.0812 -0.66667,0.66667 v -2.6667 l 1.3333,1.3333 z m 64.333,0.33333 h -1.3333 l 1.3333,-1.3333 1.3333,1.3333 z m 7.5,0 h -0.5 v -1 h 1 v 1 z m 17,0 h -0.5 v -1 h 1 v 1 z m -245.81,-2.2383 -0.45508,1.7383 0.04036,-8 0.4349,2.2617 0.4349,2.2617 z m 6.0274,-0.99375 -0.41486,2.7321 0.0204,-12 0.80931,6.5358 z m 153.29,-5.7679 -0.62739,8.5 -0.18631,-15.25 -0.1863,-15.25 2.5,0.5 -0.0788,-5.5 4.0788,0.0306 3,2.126 -5.1667,-0.81551 -0.0395,1.0795 -0.0395,1.0795 -0.3772,1.5 -0.37719,1.5 -0.65242,0.5 -0.65243,0.5 -0.39778,7 0.48644,4 1.3645,-8 0.157,15.197 -1.7747,2.803 -0.40324,-10 z m 3.5,8 h -0.5 v -1 h 1 v 1 z m 64,0 h -0.5 v -1 h 1 v 1 z m -76.896,-1.2708 -0.60417,0.60417 0.1578,-3.8333 1.0504,2.625 z m 56.896,0.27083 h -0.5 v -1 h 1 v 1 z m 9,0 h -0.5 v -1 h 1 v 1 z m 9,0 h -0.5 v -1 h 1 v 1 z m 18,0 h -0.5 v -1 h 1 v 1 z m -2,-1 h -0.5 v -1 h 1 v 1 z m -31,-1 h -0.5 v -1 h 1 v 1 z m 3,0 h -0.5 v -1 h 1 v 1 z m 26,0 h -0.5 v -1 h 1 v 1 z m -228.84,-1.731 -0.49804,1.231 0.0741,-6 0.92198,3.5381 z m 226.84,0.73096 h -0.5 v -1 h 1 v 1 z m -86.761,-6.7084 -0.35396,6.2084 0.006,-26 0.70156,13.583 z m 6.9876,2.4848 -0.39068,3.7236 0.014,-16 0.38409,4.2764 0.38408,4.2764 z m 54.832,3.2236 h -0.44099 l -1.427,-2.309 1.1545,0.71352 1.1545,0.71353 v 0.88196 z m 22.941,0 h -0.5 v -1 h 1 v 1 z m -2,-1 h -0.5 v -1 h 1 v 1 z m -1.941,-1 h -0.44099 l -1.427,-2.309 1.1545,0.71352 1.1545,0.71353 v 0.88196 z m -3.059,-2 h -0.5 v -1 h 1 v 1 z m -20,-1 h -0.5 v -1 h 1 v 1 z m 18.059,0 h -0.44099 l -1.427,-2.309 1.1545,0.71352 1.1545,0.71353 v 0.88196 z m -10.75,-4.0153 -0.30902,-0.0153 -3,-1.9388 2.382,-0.0306 1.2361,2 z m -214.15,-1.7347 -0.50439,1.25 v -5 l 1.0088,2.5 z m 219.9,0.75 h -0.44099 l -1.427,-2.309 1.1545,0.71352 1.1545,0.71353 v 0.88196 z m -14,-1 h -0.44099 l -1.427,-2.309 1.1545,0.71352 1.1545,0.71353 v 0.88196 z m 1.941,0 h -0.5 v -1 h 1 v 1 z m -60.784,-3.25 -0.41659,2.75 v -11 l 0.83318,5.5 z m 69.843,1.25 h -0.44099 l -1.427,-2.309 1.1545,0.71352 1.1545,0.71353 v 0.88196 z m -204.84,-3.2321 -0.41486,2.7321 0.0204,-12 0.80931,6.5358 z m 192.79,2.2321 h -0.5 v -1 h 1 v 1 z m -194.84,-2.731 -0.49804,1.231 0.0741,-6 0.92198,3.5381 z m 189.95,0.73096 h -0.27432 v -2.912 l 0.84965,0.52511 0.84964,0.52511 -1.1506,1.8618 z m 5.0738,0 h -0.56343 l -1.5618,-2.5 -0.19034,-1.2548 -0.19033,-1.2548 0.97875,0.6049 0.97874,0.6049 -1.1157,1.1157 2.2275,2.684 z m -199.02,-1.75 -0.50439,1.25 v -5 l 1.0088,2.5 z m 150.04,-1.9862 -0.43157,2.2362 0.0136,-5 0.0137,-5 0.83584,5.5275 z m 54.951,1.7362 h -0.34502 l -3.81,-4.5 4.5,3.81 v 0.69002 z m -15.047,-1 h -0.27432 v -2.912 l 0.84965,0.52511 0.84964,0.52511 -1.1506,1.8618 z m 3.8924,-1 h -0.5 v -1 h 1 v 1 z m -198.9,-1.2708 -0.60417,0.60417 0.1579,-3.8333 1.0504,2.625 z m 191.78,0.27083 h -0.5 l 1.2361,-2 h 1 l -1.2361,2 z m -2,-1 h -0.5 l 1.2361,-2 h 1 l -1.2361,2 z m -1.882,-1 h -0.5 v -1 h 1 v 1 z m 7,0 h -0.5 v -1 h 1 v 1 z m 3,0 h -0.5 v -1 h 1 v 1 z m -12.118,-1 h -0.5 l 1.2361,-2 h 1 l -1.2361,2 z m -27.595,-1.8618 -0.42108,1.2632 -1.5664,-2.5346 1.2003,-1.2003 1.2083,1.2083 z m 25.595,0.86175 h -0.5 l 1.2361,-2 h 1 l -1.2361,2 z m 8.118,0 h -0.5 v -1 h 1 v 1 z m 3,0 h -0.5 v -1 h 1 v 1 z m 7.059,0 h -0.44099 l -1.427,-2.309 1.1545,0.71352 1.1545,0.71353 v 0.88196 z m -22.059,-1 h -0.5 v -1 h 1 v 1 z m 10,0 h -0.5 v -1 h 1 v 1 z m -179.84,-1.75 -0.50439,1.25 v -5 l 1.0088,2.5 z m 136.84,0.75 h -0.5 v -1 h 1 v 1 z m 29,0 h -0.5 v -1 h 1 v 1 z m 6,0 h -0.5 v -1 h 1 v 1 z m 6,0 h -0.5 v -1 h 1 v 1 z m 4,0 h -0.5 v -1 h 1 v 1 z m -57.5,-1.3362 h -7.5 l 7.5,-0.78453 7.5,0.78453 z m 34.083,0.32089 -2.4167,0.0153 0.83333,-0.71271 7,-1.2845 -3,1.9666 z m 9.4167,0.0153 h -0.5 v -1 h 1 v 1 z m 8,0 h -0.5 v -1 h 1 v 1 z m 12.059,0 h -0.44099 l -1.427,-2.309 1.1545,0.71352 1.1545,0.71353 v 0.88196 z m -191.95,-1.2708 -0.60417,0.60417 0.1579,-3.8333 1.0504,2.625 z m 92.396,-0.12656 h -14.5 l 14.5,-0.69022 14.5,0.69022 z m 84.5,0.39739 h -0.5 v -1 h 1 v 1 z m 5,0 h -0.5 v -1 h 1 v 1 z m -186.9,-1.2708 -0.60417,0.60417 0.1579,-3.8333 1.0504,2.625 z m 14.062,-0.0625 -0.66667,0.66667 v -2.6667 l 1.3333,1.3333 z m 1.8333,0.33333 h -0.5 v -1 h 1 v 1 z m 120.5,-0.29966 h -5.5 l 5.5,-0.83318 5.5,0.83318 z m 40.5,0.29966 h -0.5 v -1 h 1 v 1 z m -165,-1 h -0.5 v -1 h 1 v 1 z m 53,-0.39994 -15,-0.003 15.591,-0.68329 14.409,0.68838 z m 96.5,0.16794 h -3.5 l 3.5,-0.91464 3.5,0.91464 z m 6.5,0.0371 -3,-0.0371 1.769,-0.46099 1.769,-0.46098 2.4619,0.99608 z m 23,-0.80506 h -0.5 v -1 h 1 v 1 z m -14,-1 h -0.5 v -1 h 1 v 1 z m 12,0 h -0.5 v -1 h 1 v 1 z m -35.5,-1 h -1.3333 l 1.3333,-1.3333 1.3333,1.3333 z m 18.417,-0.0789 -1.9167,-0.0789 2.625,-1.0504 1.2083,1.2083 z m 15.083,0.0789 h -0.5 v -1 h 1 v 1 z m -84,-1.355 -9,-0.006 9.5603,-0.75155 8.4397,0.76263 z m 82,0.35495 h -0.5 v -1 h 1 v 1 z m -184,-1 h -0.5 v -1 h 1 v 1 z m 12,-0.30986 -6,-0.0102 6.5358,-0.80931 5.4642,0.82972 z m 169,0.30986 h -0.5 v -1 h 1 v 1 z m -3,-1 h -0.5 v -1 h 1 v 1 z m -4.5,-1 h -1.3333 l 1.3333,-1.3333 1.3333,1.3333 z m -172.62,-1 h -0.5 l 1.2361,-2 h 1 l -1.2361,2 z m 153.12,-0.38176 -12,-0.004 12.578,-0.71211 11.422,0.7193 z m -142,-0.96105 -8,-0.007 8.5529,-0.76816 7.4471,0.78137 z"
         fill="#a5a5a5"
         id="path2" />
      <path
         d="m 175.25,323.77 -10,0.52176 -10,-2.225 -145,0.22201 11,-3.8822 66,-0.70361 -50,1.5192 -17.289,0.49875 -2.7111,1.7179 21,0.0788 95,-2.5212 -7,-1.3455 38.576,0.31862 1.4242,2.293 8.889,2.3888 10.444,-1.3049 0.49717,-1.2956 0.49716,-1.2956 16.672,-0.018 -11,1.4061 16,0.48389 -2,0.79856 -17.469,1.6372 -0.35299,-1.0468 -0.353,-1.0469 -1.4126,1.1394 -1.4126,1.1394 z m -15.5,-1.3006 h 1.3333 l -1.3333,-1.3333 -1.3333,1.3333 z m 3,-2 h 1.3333 l -1.3333,-1.3333 -1.3333,1.3333 z m 28.5,0 h 0.5 v -1 h -1 v 1 z m -47.083,-1.0789 1.9167,0.0789 -1.2083,-1.2083 -2.625,1.0504 z M -6.253,322.12 h -8.5 l 8.5,-0.76558 8.5,0.76558 z m 14,0.34941 H 6.4137 l 1.3333,-1.3333 1.3333,1.3333 z m -4.5,-1 h -0.5 v -1 h 1 v 1 z m -3,-1.212 -1,-0.14115 -14,-1.1861 11.642,-0.96073 4.3584,2.4291 z m -16,-0.78798 h -0.5 v -1 h 1 v 1 z m 23.953,-2 H 4.7471 v -2 l 7.5,-0.012 5.3648,-2.7989 -0.48741,1.2702 -0.48741,1.2702 -4.9841,2.2709 z m 14.047,0 h -0.5 v -1 h 1 v 1 z m 166,0 h -0.5 v -1 h 1 v 1 z m -184.71,-1.0111 -0.28518,-0.0111 -6.4822,-5.1089 -3.1414,-10.806 3.19,-6.5628 2.4336,-3.1926 6.459,-3.3375 8.041,1.2858 v 1.7444 l 2.5,0.0628 3.5934,4.9372 h -2.0934 v -1.8369 l -7.1332,-4.4086 -8.0391,1.0783 -5.6859,6.3686 -1.3065,7.7331 4.533,8.0654 h 1.5614 l 2.1407,4 z m 158.71,0.0111 h -0.5 v -1 h 1 v 1 z m 15.5,-0.15789 h -2.5 l 1.25,-0.50439 1.25,-0.50438 1.25,0.50438 1.25,0.50439 z m -10.871,-0.84211 h -0.78023 l -4.0506,-4.5 -1.2352,-3.5 h 1.9372 v 3.0909 l 4.9091,4.9091 z m 4.3711,0 h -0.5 v -1 h 1 v 1 z m 11.211,0 h -1.0442 l 0.83333,-0.56593 4,-2.9341 -1.3724,1.75 -1.3724,1.75 z m -189.21,-1 h -0.5 v -1 h 1 v 1 z m 31.882,0 h -0.5 l 1.2361,-2 h 1 l -1.2361,2 z m -18.704,-1 H 6.2288 l -2.2899,-3.6667 h 2.4083 l 0.2762,3.6667 z m 2.3216,0 H 7.4144 l 1.3333,-1.3333 1.3333,1.3333 z m 10.5,0 h -0.5 v -1 h 1 v 1 z m 155.5,0 h -1.3333 l 1.3333,-1.3333 1.3333,1.3333 z m 4,0 h -1.3333 l 1.3333,-1.3333 1.3333,1.3333 z m 9.5489,0 h -0.54889 v -0.75575 l 2.9778,-7.1269 -0.61854,-4.8087 -0.61854,-4.8087 1.9988,2 0.54146,3.5904 0.54145,3.5904 -1.8623,4.1596 -1.8623,4.1596 z m 2.9511,0 h -0.5 v -1 h 1 v 1 z m -187.64,-1 H 3.12048 l -5.5308,-5.7729 1.3958,-9.3078 6.6855,-5.0993 7.5753,2.5067 -2.5835,0.86778 2.2297,2.6866 1.2992,-0.49856 1.2992,-0.49855 0.52467,2.7446 0.52467,2.7446 -0.50399,1.3134 -0.50399,1.3134 h -2.8241 l 1.2827,-5.1107 -4.3658,-4.6472 -6.3788,0.63025 -1,0.36452 -0.55,-0.0518 -0.55,-0.0517 v 9.7796 l 2.9839,-2.4129 -0.70827,1.1809 -0.70827,1.1809 1.1281,0.69721 1.1281,0.69722 1.2764,-1.7562 3.6778,-2.8924 -0.67779,3.685 2.3426,0.82169 -0.44184,-2.3071 -0.44184,-2.3071 1.7426,4 2.2984,0.25 2.118,0.25 -0.68402,1.1068 -0.68402,1.1068 -1.4717,-2.3812 -0.60778,1.5838 -0.60778,1.5838 h -3.445 l 3.8823,-3.0325 -5.3171,2.2702 -5.7662,-2.8766 -1.2814,0.42715 -1.2814,0.42714 4.4949,4.7846 z m -4.3614,-6 h 0.5 v -1 h -1 v 1 z m 12,6 h -0.5 v -1 h 1 v 1 z m 2.7931,-0.56429 -1.7931,0.68279 2.4667,-2.4852 0.55979,0.55979 0.5598,0.5598 z m 145.21,0.56429 h -0.5 v -1 h 1 v 1 z m 22,0 h -0.5 v -1 h 1 v 1 z m -173,-1 h -0.5 v -1 h 1 v 1 z m 11.663,-0.3875 -1.2125,0.2375 2.0625,-1.0208 -1.1305,-1.8292 h 2.2847 l -0.79167,2.375 z m 7.3375,0.3875 h -0.5 v -1 h 1 v 1 z m 144.12,0 h -0.37755 l -1.3724,-1.75 -1.3724,-1.75 3.5,2.7449 v 0.75511 z m 11.76,0 h -0.5 l 1.2361,-2 h 1 l -1.2361,2 z m 9.118,0 h -0.5 v -1 h 1 v 1 z m -202,-1 h -0.5 v -1 h 1 v 1 z m 61.5,-0.4025 h -15.5 l 15.5,-0.68164 15.5,0.68164 z m 105.5,0.40248 h -0.5 v -1 h 1 v 1 z m 18.794,-1.2344 -1.404,1.7344 1.1478,-2.3574 1.1478,-2.3574 -1.0926,-1.0926 -1.0926,-1.0926 v 4.518 l -2.0326,-1.2562 0.59259,-0.95884 0.5926,-0.95884 -1.866,-1.7221 -1.866,-1.7221 0.91721,0.50437 3.6151,-3.2717 -0.53414,-0.86425 -0.53414,-0.86426 6.0024,0.65712 3.1377,2.604 -1.1348,1.3673 -1.1348,1.3673 h -1.7551 v -2 l 1.8,0.5 0.7,-1.8342 -5,-0.45087 -4.6735,2.9449 1.1252,1.1252 1.5806,-1.3118 1.5806,-1.3118 -0.30643,1.4193 -0.30642,1.4193 5.5,0.63285 v 1.9852 l -2,-1.2361 v 3.4514 l -1.3022,-1.3022 z m 2.7063,1.2344 h -1.3333 l 1.3333,-1.3333 1.3333,1.3333 z m 2.3776,-1 h -0.37756 v -0.75511 l 3.5,-2.7449 -1.3724,1.75 -1.3724,1.75 z m 4.1224,-1 h -0.5 v -1 h 1 v 1 z m 8,0 h -0.5 v -1 h 1 v 1 z m 4.9167,-0.0789 -1.9167,-0.079 2.625,-1.0504 1.2083,1.2083 z m -211.42,-1.079 h -2.5 l 1.25,-0.50439 1.25,-0.50438 1.25,0.50438 1.25,0.50439 z m 35.173,0.15789 h -0.82681 l 0.44031,-3 0.44031,-3 h 0.773 v 6 z m 7.9338,0 h -1.107 v -5.7714 l 2.9877,-5.7286 0.0124,3.25 1.3171,6.5857 -3.2153,-1.2338 1.1121,2.8981 z m 138.39,0 h -0.5 v -1 h 1 v 1 z m 42,0 h -0.5 v -1 h 1 v 1 z m -248.5,-1.2724 h -4.5 l 4.5,-0.86674 4.5,0.86674 z m 74,-2.7276 -0.73672,3.5 -0.29059,-8 -0.68564,-4 0.81824,2.2852 3.669,-0.95946 1.5385,2.4893 -4.6008,-1.2032 2.2212,2.2212 24.217,1.7366 46.852,-0.56977 0.42014,1 0.42015,1 0.16117,-6.5 0.16118,-6.5 0.90396,-5.5 -23.568,-0.39893 23,-1.1011 0.67082,1.5125 1.6196,-1.001 1.1867,3.0924 -1.8053,-1.1158 -0.63521,7.7559 -0.6352,7.7559 -0.40134,5 -29,-0.087 -41,-1.4644 -1.75,-0.54168 -1.75,-0.54169 -0.26328,-3.3652 z m 65,1.6395 h 9.5 l -9.5,-0.74909 -9.5,0.74909 z m 12.088,1.3605 h -0.91151 l 0.2159,-1.471 0.21591,-1.4711 1.3912,-1.3912 v 4.3333 z m 19.912,-0.40709 h -16.5 l 16.5,-0.67379 16.5,0.67379 z m 18.754,0.40709 h -1.5794 l 0.48706,-3.0904 0.48705,-3.0904 3.6859,-8.5988 2.1034,-1.3 -1.947,4.2898 -1.947,4.2898 0.1186,3 2.9235,-6 -1.2418,6 -1.4243,1.5812 -1.4243,1.5812 1.3377,1.3377 z m 10.264,-3.3097 -0.97597,3.8097 0.38084,-4.9672 0.38083,-4.9672 2.2092,-0.73639 -0.66074,-1.0691 -0.66074,-1.0691 1.1572,0.71519 1.1572,0.7152 -2.0118,3.7592 z m -207.02,2.3097 h -1.3333 l 1.3333,-1.3333 1.3333,1.3333 z m 64.5,0 h -0.5 v -1 h 1 v 1 z m 135,0 h -0.5 v -1 h 1 v 1 z m 59,0 h -0.5 v -1 h 1 v 1 z m -80.799,-1 h -16.299 l 0.40861,-3.5 0.4086,-3.5 h 1.6632 l 1.1305,1.8292 -1.2562,0.50647 -1.2562,0.50646 4.618,0.1579 -0.6428,1.0401 -0.64281,1.0401 4.6676,-0.97389 20.594,-1.2732 2.9061,2.4118 v 1.7551 z m 50.799,0 h -0.5 v -1 h 1 v 1 z m -229.83,-1.3333 -0.66667,0.66667 v -2.6667 l 1.3333,1.3333 z m 256.83,0.33333 h -0.5 v -1 h 1 v 1 z m -94.844,-1.731 -0.49805,1.231 0.0742,-6 0.92198,3.5381 z m 85.844,0.50166 -2.5,0.2069 v -3.6443 l 1.2156,-1.2156 3.7844,2.3634 v 2.0827 z m 14,0.2293 h -0.5 v -1 h 1 v 1 z m -258.83,-1.3333 -0.66667,0.66667 v -2.6667 l 1.3333,1.3333 z m 50.643,0.33333 H 5.5764 l 0.77508,-2.3252 1.6266,-0.23873 1.6266,-0.23872 -1.0755,2.8027 z m 0.19032,-1 h 0.5 v -1 h -1 v 1 z m 142,1 h -0.5 v -1 h 1 v 1 z m 19,0 h -0.5 v -1 h 1 v 1 z m 17.059,0 h -0.44099 l -1.427,-2.309 1.1545,0.71352 1.1545,0.71353 v 0.88196 z m 22.941,-0.63837 -1.5,0.57561 v -1.9372 h 3 v 0.78603 z m -246.08,-0.44057 -1.9167,-0.079 2.625,-1.0504 1.2083,1.2083 z m 17.533,0.0113 -3.45,-0.0677 4.5653,-2.1994 2.3347,2.3347 z m 133.77,-2.1823 -0.41659,2.75 v -11 l 0.83318,5.5 z m 57.666,2.25 h -0.5 l 1.2361,-2 h 1 l -1.2361,2 z m 34.118,0 h -0.5 v -1 h 1 v 1 z m 11,0 h -0.5 v -1 h 1 v 1 z m -186.83,-1.3334 -0.66667,0.66667 v -2.6667 l 1.3333,1.3333 z m 34.333,-0.0272 h -9.5 l 9.5,-0.74909 9.5,0.74909 z m 20,0.0243 h -7.5 l 7.5,-0.78453 7.5,0.78453 z m 21,0.0638 h -4.5 l 4.5,-0.86674 4.5,0.86674 z m 64.378,0.27236 h -0.37756 v -0.75511 l 3.5,-2.7449 -1.3724,1.75 -1.3724,1.75 z m -183.02,-1.2203 -0.85699,-0.22026 -28.5,-0.61439 0.01531,-3.7225 0.01531,-3.7226 1.4854,2.335 29.486,0.66498 -0.0026,-1.1177 2.9666,-3.8823 -3.4535,8.3171 -1.4902,-0.92099 1.1911,3.1039 z m -3.357,-1.7797 h 1.3333 l -0.66667,-0.66666 -0.66667,-0.66667 -0.66667,0.66667 -0.66667,0.66666 z m 65,1.768 h -3.5 l 3.5,-0.91464 3.5,0.91464 z m 76.5,0.232 h -0.5 v -1 h 1 v 1 z m 9,0 h -0.5 v -1 h 1 v 1 z m 79,0 h -0.5 v -1 h 1 v 1 z m 5.1667,-0.33333 -0.66667,0.66667 v -2.6667 l 1.3333,1.3333 z m -67.667,-0.66667 h -1.3333 l 1.3333,-1.3333 1.3333,1.3333 z m 55.163,-0.82875 -6.3366,0.32875 -0.80955,-0.81598 1.8175,-2.1899 -2.9489,-4.9941 0.63835,2.998 0.63834,2.998 -0.94116,-0.99591 -7.0696,-9.3184 1.1815,-1.1816 h -2.3333 v -1.9325 l 6.9805,4.1186 10.519,-0.43422 9.5,0.24815 v 6.0873 l -4.5,4.7552 z m -9.6044,-8.1712 h 0.44098 v -0.88196 l -2.309,-1.427 0.71353,1.1545 0.71352,1.1545 z m 12.941,0 h 0.5 v -1 h -1 v 1 z m -35,8 h -0.5 v -1 h 1 v 1 z m 7,0 h -0.5 v -1 h 1 v 1 z m 7.882,0 h -0.5 l 1.2361,-2 h 1 l -1.2361,2 z m -159.88,-1 h -0.5 v -1 h 1 v 1 z m 128,0 h -0.5 v -1 h 1 v 1 z m 20.5,-0.15789 h -2.5 l 1.25,-0.50439 1.25,-0.50438 1.25,0.50438 1.25,0.50439 z m -146.5,-0.84211 h -0.5 v -1 h 1 v 1 z m 156,0 h -0.5 v -1 h 1 v 1 z m 32.167,-0.33333 -0.66667,0.66667 v -2.6667 l 1.3333,1.3333 z m -185.17,-0.6666 h -0.5 v -1 h 1 v 1 z m 124,0 h -0.5 v -1 h 1 v 1 z m 9,0 h -0.5 v -1 h 1 v 1 z m -137,-1 h -0.5 v -1 h 1 v 1 z m 154.89,0 H 183.868 l -0.57533,-0.9309 -0.57532,-0.9309 0.84964,-0.52511 0.84965,-0.52511 v 2.912 z m -230.89,-1 h -0.5 v -1 h 1 v 1 z m 32.5,0 h -1.3333 l 1.3333,-1.3333 1.3333,1.3333 z m 46.5,0 h -0.5 v -1 h 1 v 1 z m 126,0 h -0.5 v -1 h 1 v 1 z m 11.059,0 h -0.44099 l -1.427,-2.309 1.1545,0.71352 1.1545,0.71353 v 0.88196 z m -207.56,-1.1579 h -2.5 l 1.25,-0.50439 1.25,-0.50438 1.25,0.50438 1.25,0.50439 z m 65.456,-0.17544 h -1.544 l -0.92155,-1.4911 2.9516,0.43321 1.0579,1.0579 z m 144.6,0.33333 h -0.94099 l -1.2219,-1.9771 3.1039,1.1911 v 0.78602 z m 8.882,0 h -0.94098 v -0.78602 l 3.1039,-1.1911 -1.2219,1.9771 z m -226.44,-1 h -0.5 v -1 h 1 v 1 z m 33,0 h -0.5 v -1 h 1 v 1 z m 47.167,-0.33333 -0.66667,0.66667 v -2.6667 l 1.3333,1.3333 z m 59.917,0.15309 -15.083,-0.18025 10,-1.1209 -29,-1.1025 49.167,-0.4161 v 3 z m 40.084,-0.0486 -19.667,0.27114 -0.002,-3.5423 40.142,0.58118 -0.40238,1.2094 -0.40237,1.2094 z m -18.167,-0.77114 h 0.5 v -1 h -1 v 1 z m 40,1 h -0.5 v -1 h 1 v 1 z m 6.2012,-3.195 -3.2988,3.1973 -2.4024,-2.4024 v -2.9333 l 1.5,1.5 0.125,0.91667 0.125,0.91666 0.25,1.31 3.8514,-3.4854 -0.7117,-3.6956 3.3603,-2.629 -1.2986,1.661 -1.2986,1.661 1.9263,1.1905 0.50646,-1.2562 0.50647,-1.2562 0.0789,1.0538 0.0789,1.0538 z m 0.79882,-1.805 h 0.5 v -1 h -1 v 1 z m 13.691,4.9847 -1.309,0.0153 1.2361,-2 4.382,0.0306 -3,1.9388 z m -214.01,-0.98469 h -2.9626 l -0.60699,-1.5818 -0.60699,-1.5818 v -0.83643 h 3 v 2 h 1.9372 l -1.2559,-3.2729 1.4093,0.46477 1.4094,0.46478 0.6391,4.3433 z m 13.645,0 h -8.6973 l 0.30131,-4 h 19.591 l -2.498,4 z m 54.237,0 h -1.059 v -3 l 18.5,0.41128 -17.569,0.6676 1.1873,1.9211 z m 82.441,0 h -0.5 v -1 h 1 v 1 z m 59.917,-0.0789 -1.9167,-0.079 2.625,-1.0504 1.2083,1.2083 z m -182.23,-0.92112 h -0.5 l 3.62,-4 h 1 l -3.62,4 z m 35.484,0 h -0.32569 l -4.8486,-5.5 5.5,4.8486 v 0.65137 z m 29.826,-0.25218 -4,-0.0202 4.5233,-0.86979 1.7383,0.45507 1.7383,0.45508 z m -67,-0.74782 h -0.5 v -1 h 1 v 1 z m 33,0 h -0.5 v -1 h 1 v 1 z m -2,-2 h -0.5 v -1 h 1 v 1 z m 94.5,0 h -1.3333 l 1.3333,-1.3333 1.3333,1.3333 z m 45.5,0 h -0.5 v -1 h 1 v 1 z m 58.047,-0.21365 -0.2999,0.29991 -0.62354,-1.6249 -0.62354,-1.6249 0.10236,-2.1682 0.10236,-2.1682 0.82109,3.4932 0.82108,3.4932 z m -230.05,-0.78635 h -0.5 v -1 h 1 v 1 z m 3,0 h -0.5 v -1 h 1 v 1 z m 37,0 h -0.5 v -1 h 1 v 1 z m 2.9167,-0.0789 -1.9167,-0.079 2.625,-1.0504 1.2083,1.2083 z m 156.03,0.0636 -1.05,0.0153 -1.0684,-1.0684 -1.0684,-1.0684 -11.263,-1.5284 v 1.6652 h -3 v -2 l 1.5,0.31752 3.5324,-1.5439 10.485,1.31 2.9828,1.8858 -3,0.0612 1.5,0.96937 1.5,0.96938 z m 16.55,-0.30772 -9.5,-0.003 11,-1.174 0.14306,-4.8431 0.14307,-4.8431 1.1069,-1.1069 1.1069,-1.1069 2.5,2.6944 -1.6877,-0.59188 -1.6877,-0.59189 -0.31231,2.1947 -0.3123,2.1947 0.35291,3.1943 0.3529,3.1943 6.2942,0.79129 z m -236.69,-0.8268 -7.191,0.14983 -0.92995,-1.5 10.312,0.57145 5,0.62889 z m 30.191,0.14983 h -0.5 v -1 h 1 v 1 z m 20,0 h -0.5 v -1 h 1 v 1 z m 9.059,0 h -0.44098 l -0.71353,-1.1545 -0.71352,-1.1545 1.1545,0.71352 1.1545,0.71353 v 0.88196 z m 142,0 h -0.44099 l -1.427,-2.309 1.1545,0.71352 1.1545,0.71353 v 0.88196 z m -213.9,-1.75 -0.50439,1.25 v -5 l 1.0088,2.5 z m 45.838,0.75 h -0.5 v -1 h 1 v 1 z m 14,0 h -0.5 v -1 h 1 v 1 z m 5,0 h -0.5 v -1 h 1 v 1 z m -24,-1 h -0.5 v -1 h 1 v 1 z m 12,-0.25218 -4,-0.0202 4.5233,-0.86979 1.7383,0.45507 1.7383,0.45508 z m 10,0.25218 h -0.5 v -1 h 1 v 1 z m 173,0 h -0.5 v -1 h 1 v 1 z m -227.17,-1 h -0.39502 l -1.1259,-2.934 1.8872,-5.566 0.01436,4.25 0.01435,4.25 z m 34.168,0 h -0.5 v -1 h 1 v 1 z m 18,0 h -0.5 v -1 h 1 v 1 z m 6,0 h -0.5 v -1 h 1 v 1 z m 145,0 h -0.5 v -1 h 1 v 1 z m 21,0 h -0.5 v -1 h 1 v 1 z m 6,0 h -0.5 v -1 h 1 v 1 z m -234,-1 h -0.5 v -1 h 1 v 1 z m 36,0 h -0.5 v -1 h 1 v 1 z m 5,0 h -0.5 v -1 h 1 v 1 z m 11.5,0 h -1.3333 l 1.3333,-1.3333 1.3333,1.3333 z m 7.5,0 h -0.5 v -1 h 1 v 1 z m 149,0 h -0.5 v -1 h 1 v 1 z m 16.5,0 h -1.3333 l 1.3333,-1.3333 1.3333,1.3333 z m -187.5,-1 h -0.5 v -1 h 1 v 1 z m 19,0 h -0.5 v -1 h 1 v 1 z m 154,0 h -0.5 v -1 h 1 v 1 z m 2,0 h -0.5 v -1 h 1 v 1 z m 5.5,-0.27236 h -4.5 l 4.5,-0.86674 4.5,0.86674 z m -223.5,-0.72764 h -0.5 v -1 h 1 v 1 z m 5,0 h -0.5 v -1 h 1 v 1 z m 42.917,-0.0789 -1.9167,-0.079 2.625,-1.0504 1.2083,1.2083 z m 5.0833,0.0789 h -0.5 v -1 h 1 v 1 z m 3.5,-0.1579 h -2.5 l 1.25,-0.50439 1.25,-0.50438 1.25,0.50438 1.25,0.50439 z m -13.5,-0.84211 h -0.5 v -1 h 1 v 1 z m 113.16,-0.73096 -0.49805,1.231 0.0742,-6 0.92198,3.5381 z m 59.844,0.73096 h -0.5 v -1 h 1 v 1 z m 43.167,-0.33333 -0.66667,0.66667 v -2.6667 l 1.3333,1.3333 z m 3,-1 -0.66667,0.66667 v -2.6667 l 1.3333,1.3333 z m -261.93,-4.8831 -0.37317,4.7165 0.0094,-20 0.36844,5.2835 0.36844,5.2835 z m 5.8733,4.2165 h -0.39301 l -0.60699,-1.5818 -0.60699,-1.5818 v -7.8364 h 2 v 11 z m 152.35,-0.473 -0.95633,0.59104 v -4 l 0.75,-0.43389 0.75,-0.43388 4,1.7908 -4.658,-0.89513 0.53532,1.395 0.53531,1.395 z m 57.075,0.473 h -0.96861 l 0.5756,-1.5 0.57561,-1.5 h 0.78602 v 3 z m 2.6971,-3.25 -0.39226,3.75 v -15 l 0.78452,7.5 z m 16.188,3.0774 -2.4167,-0.1726 -13,-1.1548 2.0196,-1.3211 14.595,1.6021 0.60953,0.60952 0.60952,0.60952 z m -132.92,-0.82741 h -1.3333 l 1.3333,-1.3333 1.3333,1.3333 z m 48.5,-0.8337 -3,0.45358 -9,-1.3195 15.833,-0.30039 -0.41666,0.35636 -0.41667,0.35636 z m 36,0.55948 -12,-0.0405 14,-1.4369 23,0.0566 -13,1.4613 z m 72,0.27422 h -0.5 v -1 h 1 v 1 z m -183,-1.3647 -24,-0.0225 -42,-1.2947 -1,-0.52282 6.9777,-1.6404 1.0223,1.6265 83,1.8765 z m 48.5,0.36469 h -1.3333 l 1.3333,-1.3333 1.3333,1.3333 z m 5.4167,-0.0789 -1.9167,-0.079 2.625,-1.0504 1.2083,1.2083 z m 85.083,0.0789 h -0.5 v -1 h 1 v 1 z m 43,-1 h -0.5 v -1 h 1 v 1 z m 4,0 h -0.5 v -1 h 1 v 1 z m -143,-1.2522 -4,-0.0202 4.5233,-0.86979 1.7383,0.45507 1.7383,0.45508 z m 5.5,0.25218 h -1.3333 l 1.3333,-1.3333 1.3333,1.3333 z m 7.5,-0.19494 -3,-0.0371 1.769,-0.46099 1.769,-0.46098 2.4619,0.99608 z m 14,-0.0279 -9,-0.19223 18.5,-0.65997 0.16484,-10.212 0.16485,-10.212 1.2606,20 -1.0451,0.73469 -1.0452,0.73469 z m 105.16,0.22285 h -0.41274 l -1.265,-1.5242 -1.2649,-1.5242 1.123,-1.123 2.2324,4.1713 z m -224.16,-1.355 -9,-0.006 9.5603,-0.75155 8.4397,0.76263 z m 230.06,0.35495 h -0.44099 l -1.427,-2.309 1.1545,0.71352 1.1545,0.71353 v 0.88196 z m -247.9,-1.75 -0.50439,1.25 v -5 l 1.0088,2.5 z m 3.3377,0.75 h -1.3333 l 1.3333,-1.3333 1.3333,1.3333 z m 70.5,-0.44464 -31,-7.7e-4 31.625,-0.606 30.375,0.60754 z m 36.5,0.17228 h -4.5 l 4.5,-0.86674 4.5,0.86674 z m 141.5,0.27236 h -0.5 v -1 h 1 v 1 z m -242,-1.286 -5,-0.0137 5.5275,-0.83583 4.4725,0.86313 z m 141,0.28601 h -0.5 v -1 h 1 v 1 z m 8.059,-1 h -0.44099 l -1.427,-2.309 1.1545,0.71352 1.1545,0.71353 v 0.88196 z m 2.9421,-1.3059 -1.2971,1.1941 -1.0694,-4.0895 -1.2218,0.75513 -1.2218,0.75512 0.74354,-1.2031 0.74354,-1.2031 2.3219,1.927 1.6667,0.004 0.63161,0.66666 z m 2.4398,1.3059 h -0.94098 v -0.78602 l 3.1039,-1.1911 -1.2219,1.9771 z m 72.726,-0.33333 -0.66667,0.66667 v -2.6667 l 1.3333,1.3333 z m 7.9883,0.33333 h -0.34502 l -3.81,-4.5 4.5,3.81 v 0.69002 z m -243.15,-1 h -0.5 v -1 h 1 v 1 z m 149.22,-2.25 -0.41659,2.75 v -11 l 0.83318,5.5 z m 84.091,1.7765 -0.55979,0.55979 -0.68279,-1.7931 -0.68278,-1.7931 2.4852,2.4667 z m 14.752,0.47353 h -0.44099 l -1.427,-2.309 1.1545,0.71352 1.1545,0.71353 v 0.88196 z m -109.56,-2 h -1 v -2.118 l 1,0.61803 1,0.61804 v 0.88196 z m 25.559,0 h -0.44099 l -1.427,-2.309 1.1545,0.71352 1.1545,0.71353 v 0.88196 z m -167.06,-1 h -0.5 v -1 h 1 v 1 z m 3.4491,-1.528 -0.82228,2.028 -0.12344,-5 1.0612,-16.5 1.0612,-16.5 0.72751,-2.9106 0.72752,-2.9106 3.4192,-0.50183 v 1.823 h -2.8561 l -1.0925,10.5 -1.2801,27.944 z m 229.55,1.528 h -0.5 v -1 h 1 v 1 z m 8.059,0 h -0.44099 l -1.427,-2.309 1.1545,0.71352 1.1545,0.71353 v 0.88196 z m -13.177,-1 h -0.5 l 1.2361,-2 h 1 l -1.2361,2 z m 3.118,0 h -0.5 v -1 h 1 v 1 z m -232,-1 h -0.5 v -1 h 1 v 1 z m 142.24,-5.25 -0.36082,5.75 v -23 l 0.72164,11.5 z m 55.261,4.8895 h -9.5 l 9.5,-0.74909 9.5,0.74909 z m 29.382,0.36049 h -0.5 l 1.2361,-2 h 1 l -1.2361,2 z m 12.177,0 h -0.44099 l -1.427,-2.309 1.1545,0.71352 1.1545,0.71353 v 0.88196 z m 6.941,0 h -0.5 v -1 h 1 v 1 z m -83,-1.1949 -3,-0.0371 1.769,-0.46099 1.769,-0.46098 2.4619,0.99608 z m 4,0.19494 h -0.5 v -1 h 1 v 1 z m 41,0 h -0.5 v -1 h 1 v 1 z m 16.882,0 h -0.5 l 1.2361,-2 h 1 l -1.2361,2 z m -65.854,-1 h -0.4096 l -1.3183,-2.1331 0.95319,-0.95319 0.59216,1.5431 0.59215,1.5431 z m 62.972,0 h -0.5 v -1 h 1 v 1 z m 14,0 h -0.5 v -1 h 1 v 1 z m 7,0 h -0.5 v -1 h 1 v 1 z m -52.109,-1.2782 -5.8912,-0.22175 -22.828,-0.5663 -2.5015,-3.421 1.8527,-1.145 -1.0331,-9.9338 -1.0331,-9.9338 1.2018,-5.5 3.3411,-0.23881 12,0.4204 7,2.9336 6.4876,3.3848 11.9,10 0.0562,1.2886 0.0562,1.2886 -8.1584,-8.0773 h -2.5967 l -2.4898,-3 -1.6276,0.079 -1.6276,0.0789 3,1.1327 7.5,5.8775 v 3.6891 l 3,3 v 1.2609 l -1.7216,-1.064 0.73045,3.9945 0.73045,3.9945 -1.4569,0.90041 z m 12.231,0.27825 h -0.37755 l -1.3724,-1.75 -1.3724,-1.75 3.5,2.7449 v 0.75511 z m 2.8776,0 h -0.5 v -1 h 1 v 1 z m 2.7905,0 h -0.36087 l 1.8882,-3.5281 -2.8276,-6.725 3.0099,2.498 v 3.9691 l 3.453,-1.325 -4.8016,5.111 z m 10.71,0 h -1.3333 l 1.3333,-1.3333 1.3333,1.3333 z m 4.5,0 h -0.5 v -1 h 1 v 1 z m 10,0 h -0.5 v -1 h 1 v 1 z m -17,-1 h -0.5 v -1 h 1 v 1 z m 5,0 h -0.5 v -1 h 1 v 1 z m 10,0 h -0.5 v -1 h 1 v 1 z m -18,-1 h -0.5 v -1 h 1 v 1 z m 6,0 h -0.5 v -1 h 1 v 1 z m 10.309,-0.0153 -0.30902,-0.0153 -3,-1.9388 2.382,-0.0306 1.2361,2 z m 7.691,0.0153 h -0.5 v -1 h 1 v 1 z m -80.811,-2.25 -0.45733,1.75 v -7 l 0.45733,1.75 0.45732,1.75 z m 60.87,1.25 h -0.44099 l -1.427,-2.309 1.1545,0.71352 1.1545,0.71353 v 0.88196 z m 17.941,0 h -0.5 v -1 h 1 v 1 z m -9.75,-1.0442 -0.25,-0.0442 -7.5621,-3.9912 -2.4379,1.373 2.262,-2.4554 8.238,4.2027 v 0.95935 z m -11.128,-0.95581 h -0.37755 l -1.3724,-1.75 -1.3724,-1.75 3.5,2.7449 v 0.75511 z m 4.8776,0 h -0.5 v -1 h 1 v 1 z m 12,0 h -0.5 v -1 h 1 v 1 z m -32,-1 h -0.5 v -1 h 1 v 1 z m 7,0 h -0.5 v -1 h 1 v 1 z m -51.833,-1.3333 -0.66667,0.66667 v -2.6667 l 1.3333,1.3333 z m 72.833,0.33333 h -0.5 v -1 h 1 v 1 z m -27,-1 h -0.5 v -1 h 1 v 1 z m 3.559,-1 h -0.94099 l -1.2219,-1.9771 3.1039,1.1911 v 0.78602 z m 11.891,-1 h -0.5 l -14.9,-15 h 1 l 14.9,15 z m 6.5501,0 h -0.5 v -1 h 1 v 1 z m -227.81,-2.25 -0.45732,1.75 v -7 l 0.91464,3.5 z m 203.42,1.25 h -0.89301 l -1.2598,-3.2829 3.0458,2.5278 v 0.75511 z m 12.452,0 h -0.44099 l -1.427,-2.309 1.1545,0.71352 1.1545,0.71353 v 0.88196 z m 9.941,0 h -0.5 v -1 h 1 v 1 z m -18,-1 h -0.5 v -1 h 1 v 1 z m 4,0 h -0.5 v -1 h 1 v 1 z m -206.81,-2.2383 -0.45508,1.7383 0.04036,-8 0.4349,2.2617 0.4349,2.2617 z m 217.97,1.2383 h -0.34502 l -3.81,-4.5 4.5,3.81 v 0.69002 z m -9.7249,-1.5967 -0.47192,0.47192 -6.8573,-5.9871 -0.4744,-3.2323 8.2755,8.2755 z m -52.573,-2.4058 -0.14301,0.002 -0.60699,-1.5818 -0.60699,-1.5818 v -9.8364 h 1.6855 l -0.0928,6.4975 -0.0928,6.4975 z m 57.143,-1.9975 h -0.5 v -1 h 1 v 1 z m -14.878,-1 h -0.37755 l -1.3724,-1.75 -1.3724,-1.75 3.5,2.7449 v 0.75511 z m 12.033,-1 h -0.34502 l -3.81,-4.5 4.5,3.81 v 0.69002 z m -11.009,-1 h -0.40061 l -0.96675,-1.25 -0.96674,-1.25 -0.71472,-1.25 -0.71471,-1.25 h 0.88801 l 3.2761,5 z m -202.99,-1.731 -0.49804,1.231 0.0741,-6 0.92198,3.5381 z m 196.9,-0.26904 h -0.44099 l -1.427,-2.309 1.1545,0.71352 1.1545,0.71353 v 0.88196 z m 1.0114,-2 h -0.5 l -2.1407,-4 h 1 l 2.1407,4 z m -5.0704,-1 h -0.5 v -1 h 1 v 1 z m -187.84,-1.731 -0.49804,1.231 0.0741,-6 0.92198,3.5381 z m 185.84,0.73096 h -0.5 v -1 h 1 v 1 z m 10.059,0 h -0.44099 l -1.427,-2.309 1.1545,0.71352 1.1545,0.71353 v 0.88196 z m -54.955,-1.2708 -0.60417,0.60417 0.1578,-3.8333 1.0504,2.625 z m 42.896,0.27083 h -0.5 v -1 h 1 v 1 z m 5,0 h -0.5 v -1 h 1 v 1 z m 11.122,0 h -0.37755 l -1.3724,-1.75 -1.3724,-1.75 3.5,2.7449 v 0.75511 z m -13.24,-1 h -0.5 l 1.2361,-2 h 1 l -1.2361,2 z m -32.139,-1 h -0.31295 l 2.1407,-4 h 1.91 l -3.4249,4 z m 25.257,0 h -0.5 v -1 h 1 v 1 z m 5.191,-0.0153 -0.19098,-0.0153 -2.7135,-1.7194 2.2135,-1.368 v 2.2361 l 1.1545,-0.71353 1.1545,-0.71352 -1.427,2.309 z m 6.868,0.0153 h -0.44099 l -1.427,-2.309 1.1545,0.71352 1.1545,0.71353 v 0.88196 z m -40.59,-1 h -0.96862 v -4.786 l 3,-1.1512 v 2.9372 h -2.214 l 0.57561,1.5 0.5756,1.5 z m 26.031,0 h -1.3333 l 1.3333,-1.3333 1.3333,1.3333 z m -35.5,-1 h -0.5 v -1 h 1 v 1 z m 32,0 h -0.5 v -1 h 1 v 1 z m 6.882,0 h -0.5 l 1.2361,-2 h 1 l -1.2361,2 z m 8.118,0 h -0.5 v -1 h 1 v 1 z m 6.059,0 h -0.44099 l -1.427,-2.309 1.1545,0.71352 1.1545,0.71353 v 0.88196 z m -198.95,-1.2708 -0.60417,0.60417 0.1579,-3.8333 1.0504,2.625 z m 144.66,-0.4234 -0.76631,0.44397 -1.9464,-0.70686 -1.9464,-0.70687 4.3909,-1.1482 0.51731,0.83703 0.5173,0.83702 z m -0.76631,-0.30577 h 0.5 v -1 h -1 v 1 z m 28.917,0.92106 -1.9167,-0.0789 2.625,-1.0504 1.2083,1.2083 z m 9.0833,0.0789 h -0.5 v -1 h 1 v 1 z m -17,-1 h -0.5 v -1 h 1 v 1 z m 13,-0.0306 h -1 l 1.5,-0.96938 1.5,-0.96937 h 2 l -3,1.9388 z m 6,0.0306 h -0.5 v -1 h 1 v 1 z m 6,0 h -0.5 v -1 h 1 v 1 z m -74.083,-1.1085 -4.0833,0.10853 -0.48212,-0.48211 -0.48212,-0.48212 -96.369,-0.1094 v -2.2477 l 54.325,1.3213 63.175,0.29405 -12,1.4889 z m 57.333,0.0932 -0.75,0.0153 v -2 l 4.5,0.0306 -3,1.9388 z m 14.75,0.0153 h -0.5 v -1 h 1 v 1 z m 7.059,0 h -0.44099 l -1.427,-2.309 1.1545,0.71352 1.1545,0.71353 v 0.88196 z m -32.559,-1 h -3 v -0.773 l 6,-0.88061 v 1.6536 z m 5.5,0 h -0.5 v -1 h 1 v 1 z m 18,0 h -0.5 v -1 h 1 v 1 z m -2,-1 h -0.5 v -1 h 1 v 1 z m 8,0 h -0.5 v -1 h 1 v 1 z m -186.9,-1.2708 -0.60417,0.60417 0.1579,-3.8333 1.0504,2.625 z m 176.4,0.27083 h -1.3333 l 1.3333,-1.3333 1.3333,1.3333 z m 8.5,0 h -0.5 v -1 h 1 v 1 z m -11.5,-1 h -1.3333 l 1.3333,-1.3333 1.3333,1.3333 z m 9.5,0 h -0.5 v -1 h 1 v 1 z m -186.83,-1.3333 -0.66667,0.66667 v -2.6667 l 1.3333,1.3333 z m 173.33,0.33333 h -1.3333 l 1.3333,-1.3333 1.3333,1.3333 z m 11.5,0 h -0.5 v -1 h 1 v 1 z m -62.5,-1.3854 h -12.5 l 12.5,-0.71008 12.5,0.71008 z m 20.5,0.38535 h -0.5 v -1 h 1 v 1 z m 19.5,-0.27236 h -4.5 l 4.5,-0.86674 4.5,0.86674 z m 20.5,0.27236 h -0.5 v -1 h 1 v 1 z m -178,-1 h -0.5 v -1 h 1 v 1 z m 36,-0.43125 -24,-10e-4 24.615,-0.63003 23.385,0.63241 z m 139,0.43131 h -0.5 v -1 h 1 v 1 z m -4.0833,-1.0789 -1.9167,-0.0789 2.625,-1.0504 1.2083,1.2083 z m -174.92,-0.92106 h -0.5 v -1 h 1 v 1 z m 169.92,-0.0789 -1.9167,-0.0789 2.625,-1.0504 1.2083,1.2083 z m -51.917,-1.3523 -24,-0.001 24.615,-0.63003 23.385,0.63241 z m -115.5,-0.56875 h -1.3333 l 1.3333,-1.3333 1.3333,1.3333 z"
         fill="#5f5f5f"
         id="path3" />
      <path
         d="m 179.22,321.93 -5.9642,0.4761 -6.9063,-2.1006 -1.9102,-2.1688 -1.9102,-2.1688 -5.1094,-6.6296 -129.81,0.62957 -2.1611,3.8633 -5.6594,5.5322 -7.5379,2.0933 -8.0762,0.012 -8.8578,-4.5 -6.9884,-10.5 -20.078,-0.1027 -13.43,-1.4938 -1.5701,-1.5675 0.21758,-6.168 0.21758,-6.168 1.0563,-40 1.5173,-16.942 1.5173,-16.942 2.131,-7.9139 166.34,1.4494 13.504,2.8212 11.736,5.9242 14.76,11.809 14.238,13.793 13.762,6.9752 11.785,6.788 7.603,6.8688 2.2962,6.9576 1.9127,11.41 0.5497,3.1556 0.54969,3.1556 -1.6693,5.7422 -1.6693,5.7422 -5.7043,5.7043 h -16.752 l -2.434,6.7312 -2.0715,2.3844 -2.0715,2.3844 -0.6982,1.243 -0.6982,1.2429 z M 8.52,317.468 h 3.4638 l 7.6999,-4.3276 1.5362,-3.2374 1.5362,-3.2373 -0.10236,-2.8489 -0.10236,-2.8489 -1.5947,6.7544 -3.8934,5.2456 -4.8072,2.4705 -8.0204,0.0294 -5.4613,-5.064 -1.5817,-3.0587 -1.5817,-3.0587 0.64346,-3.8086 0.64346,-3.8086 5.6859,-6.3686 8.0391,-1.0783 7.1332,4.4086 v 1.8369 h 2.0934 l -1.7967,-2.4686 -1.7967,-2.4686 -2.5,-0.0628 v -1.7444 l -8.041,-1.2858 -6.459,3.3375 -2.4336,3.1926 -3.19,6.5628 3.1898,10.973 8.2339,5.9646 z m 169.24,-1.1579 h 2.5 l -2.5,-1.0088 -2.5,1.0088 z m -10.871,-0.84211 h 0.78023 l -4.9091,-4.9091 v -3.0909 h -1.9372 l 0.61763,1.75 0.61762,1.75 2.0253,2.25 2.0253,2.25 z m 4.3711,0 h 0.5 v -1 h -1 v 1 z m 11.211,0 h 1.0442 l 2.7449,-3.5 -4,2.9341 -0.41667,0.28297 -0.41666,0.28296 z m -175.85,-2.0553 0.35699,0.0553 -0.59102,-1.5402 -0.59102,-1.5402 2.4681,0.3173 4.4594,-0.23697 3.9306,-7.7047 -1.2059,-4.6112 -1.9219,-1.9219 -1.9219,-1.9219 -5.8778,-2.049 -6.7233,5.1281 -1.4059,9.3754 6.607,6.2052 -4.7888,-5.5 h 2.1965 l 4.6521,5.8894 z m -2.2585,-5.9447 H 3.87749 l -1.5567,-2.2225 -1.5567,-2.2225 v -3.1727 l 2.6703,-3.6518 6.2085,-0.4884 4.4244,4.7096 -1.8331,6.3917 -1.26,0.25335 -1.26,0.25334 2.05,-1.0167 v -2.8333 h -2.6229 l -4.2935,4 z m -1.0985,-2 h 0.5 v -1 h -1 v 1 z m 3.8097,-4 h 1.4763 l 1.0755,-2.8027 -3.2531,0.47745 -0.38754,1.1626 -0.38754,1.1626 z m -7.8097,5 h -0.5 v -1 h 1 v 1 z m 9.5,7 h 1.3333 l -0.66667,-0.66666 -0.66667,-0.66667 -0.66667,0.66667 -0.66667,0.66666 z m 167.66,0 h 2.4439 l 5.6583,-2.926 0.62118,-1.6188 0.62118,-1.6188 v -6.6292 l -3.5348,-3.1036 -3.5348,-3.1036 h -3.0297 l -5.8414,3.0207 -2.0593,3.8478 v 6.3291 l 3.1058,2.9012 3.1058,2.9012 z m 0.41801,-3.5346 -3.2027,0.40533 -1.9354,-1.9354 -1.9354,-1.9354 v -3.555 l 1.5567,-2.2225 1.5567,-2.2225 h 2.2352 l -4.6482,4.9478 3.4145,1.3103 -0.5138,1.3389 -0.51379,1.3389 1.9126,1.1821 v -4.2361 l 1.0407,0.64317 1.0407,0.64318 -0.60806,1.9158 -0.60807,1.9158 h 0.82876 l 4.1059,-3.5611 0.65016,-3.9389 -0.86591,-1.5 -0.8659,-1.5 3.0671,3 1.2429,4.1644 -1.8761,1.6978 -1.8761,1.6978 z m 11.475,3.5346 h 0.54889 l 3.7247,-8.3193 -0.54351,-3.5904 -0.54351,-3.5904 -4.9671,-6.6703 -6.2683,-3.8222 -8.2042,-0.008 -6.6119,4.5 -1.9519,2.6358 -1.9519,2.6358 -0.4032,4.8642 -0.40319,4.8642 1.3795,-4.8325 1.3795,-4.8325 3.9484,-5.335 7.9134,-2.7986 7.2708,1.364 6.8684,6.8684 1.2907,8.0718 -3.0245,7.2387 v 0.75575 z m -177.05,-1 h 0.5 v -1 h -1 v 1 z m 2.7931,-0.56429 1.7931,-0.68278 -1.1196,-1.1196 -2.4667,2.4852 z m 1.1479,-2.4357 h 0.44098 l 1.2361,-2 h -2.118 v 2 z m 14.135,-2 h 0.56669 l 2.9991,-2.9991 -2.2796,-10.981 -6.3623,-9.4616 -9.8432,-6.0583 h -16.303 l -7.112,4.8732 -4.7415,7.7844 -26,-0.39872 -3.5,0.24114 v 7 h 26.836 l 2.8553,1.0957 3.5038,-9.1747 5.211,-6.193 6.5291,-2.7281 h 11.128 l 6.633,2.7714 6.4277,6.2832 3.1194,7.4453 -0.1174,5.25 -0.1174,5.25 z m -44.076,-14 h -0.5 v -1 h 1 v 1 z m 87.25,12.762 37.75,-0.26203 0.57341,-7 0.57342,-7 0.17658,7.25 0.17659,7.25 h 2.2328 l -0.90596,-33.5 0.7686,11.5 h 42.905 v 2.0772 l -42.002,-0.57723 9.7e-4,7.6849 9.6e-4,7.6849 1.9764,5.1983 35.289,-0.2327 1.3616,-0.5225 1.3616,-0.52249 -0.44776,-0.72451 -0.44777,-0.7245 2.7497,-9.1365 2.9867,-5.705 6.6706,-6.3178 8,-2.171 6.6097,-0.012 8.6702,3.9497 4.7201,5.6329 3.4854,4.9174 -1.0996,-6 1.4745,2.4971 1.4745,2.4971 -2.0797,2.5059 1.7449,0.1638 12,-0.29332 4.5,-4.7832 v -6.0873 l -9.5,-0.24815 -10.44,0.42908 -10.698,-6.121 -10.861,-1.2494 -11.452,4.3151 -7.4081,8.3744 3.7059,-6 6.1538,-5.4434 5.2701,-2.204 0.1655,-11.144 0.1655,-11.144 0.89889,-0.89889 v 23.108 l 13.538,0.76497 11.331,5.5437 16.631,-0.58301 0.6085,-8.367 -1.9627,-3.8165 -1.9627,-3.8165 -2.8416,-2.5891 -2.8416,-2.5891 -6,-4.0186 -20,-10.58 -17,-16.321 -9,-7.1954 -13,-7.0498 -8.6393,-2.2719 -57.361,-0.73226 -110.39,-1.4341 -0.54425,2.3905 -0.54425,2.3905 -1.9995,24 -0.01032,8.8158 -0.01032,8.8157 1.8552,3.4665 1.4163,12.518 -4.3787,1.1451 0.60723,6.2387 29.676,1 2.1898,-2.6462 8.1338,-4.174 15,0.1106 9,3.5563 4.7697,3.6534 48.23,0.006 34.5,1.3087 v 2.3388 l -5.5,-0.5735 -75.5,-0.86796 v 2.7878 h 1.6962 l 3.3038,10.23 v 7.7944 z m 37.75,-16.762 h -0.5 v -1 h 1 v 1 z m 6,-1 h -0.5 v -1 h 1 v 1 z m 79.059,0 h -0.44099 l -1.427,-2.309 1.1545,0.71352 1.1545,0.71353 v 0.88196 z m 12.941,0 h -0.5 v -1 h 1 v 1 z m -97.813,-7.2383 -0.45508,1.7383 0.0404,-8 0.8698,4.5233 z m 94.975,-0.51166 -0.50439,1.25 v -5 l 1.0088,2.5 z m 0.46743,-7.7373 -0.82426,2.9873 -0.85634,-8.4795 2.5048,2.5049 z m -44.13,-0.86211 h -8.5 l 8.5,-0.76558 8.5,0.76558 z m -34.643,-0.85742 -14.143,0.20683 -0.60699,-1.5818 -0.60699,-1.5818 0.14983,-22.168 0.14983,-22.168 0.65966,5 0.54068,41 28,1.0863 z m -77.857,-3.1483 -60,-0.0197 -23.342,-1.1252 -1.5826,-1.5916 8.0331,1.2845 136.89,1.4716 z m 152.06,-1.6449 h -0.44099 l -1.427,-2.309 1.1545,0.71352 1.1545,0.71353 v 0.88196 z m -78.792,-1 h -0.36739 l -1.1762,-1.1762 -1.1762,-1.1762 2.1973,-2.6476 h 4.5102 l 2.374,2.8605 -4.3004,2.3015 -1.2708,-1.2708 1.471,-0.93032 1.471,-0.93031 -1,-0.1836 -3.5824,-0.68211 0.60861,1.9176 0.60862,1.9176 z m 75.733,-1 h -0.5 v -1 h 1 v 1 z m -1.75,-1.0452 -0.25,-0.0452 -9,-4.8021 -14.461,-5.3613 0.53254,-0.86167 0.53255,-0.86168 -1.5519,0.59554 -1.5519,0.59553 v -3.9691 l -1.4408,-1.1958 -1.4408,-1.1958 2.293,6.0748 -0.98043,2.7859 -0.98043,2.7859 -40.95,0.2717 -7.5498,-0.99633 -1.1282,-2.108 -1.1282,-2.108 -0.95582,-28.154 1.8278,-1.8278 1.8278,-1.8278 13.173,1.2243 9.9172,3.3791 7.0164,3.9952 9,7.0903 17.415,15.501 20.085,10.079 v 0.98176 z m -45.359,-7.2331 5.8912,0.22174 0.72845,-0.45021 0.72846,-0.4502 -1.4609,-7.989 0.86079,0.53199 0.86078,0.532 v -1.2609 l -3,-3 v -3.6891 l -7.5,-5.8775 -3,-1.1327 1.6276,-0.0789 1.6276,-0.079 2.4898,3 h 2.5967 l 8.0804,8 h 2.2327 l -10.407,-9.5 -9.0995,-6.5 h -2.3407 l -5.8073,-2.8361 -12,-0.40269 -1.6705,0.11941 -1.6706,0.1194 -1.2018,5.5 1.0331,9.9338 1.0331,9.9338 -1.8527,1.145 2.5015,3.421 22.828,0.5663 z m 13.624,0.27825 h 1.7706 l 1.214,-3.1636 v -3.4593 l -4.3474,-4.6664 -1.7336,2.141 -1.7336,2.141 0.55177,2.2536 0.55176,2.2536 0.97802,1.25 0.97801,1.25 z m -5.9085,-11 h 0.89301 v -0.75511 l -1.5229,-1.2639 -1.5229,-1.2639 1.2598,3.2829 z m -55.358,-2.3911 -0.29602,18.891 -0.26899,-1 -0.26898,-1 0.1634,-34.163 -2.004,-5.2708 -22.575,-0.63869 22.454,-0.42752 1.5456,2.3589 1.5456,2.359 z m 57.906,-7.6089 h -0.34502 l -3.81,-4.5 4.5,3.81 v 0.69002 z m -5.0326,-4 h -0.37755 l -1.3724,-1.75 -1.3724,-1.75 3.5,2.7449 v 0.75511 z m -3.8134,-3.0731 -0.30902,-0.0731 -5.5152,-3.5356 -0.74242,-0.78626 -0.74242,-0.78627 6.3732,3.2401 1.2448,2.0142 z m -8.3924,-4.9669 -1.0833,0.04 -0.94044,-0.94044 -10.893,-3.0972 8.7404,1.0997 5.2596,2.8578 z m -28.417,-3.96 h -1.3333 l 1.3333,-1.3333 1.3333,1.3333 z m 8,0 h -1.3333 l 1.3333,-1.3333 1.3333,1.3333 z m 4,-0.15789 h -2.5 l 1.25,-0.50439 1.25,-0.50438 1.25,0.50438 1.25,0.50439 z m -108.5,86.158 h 0.5 v -1 h -1 v 1 z m 191,-2 h 0.5 v -1 h -1 v 1 z m -9,-1.2293 2.5,-0.20691 v -2.0827 l -3.7844,-2.3634 -1.2156,1.2156 v 3.6443 z m -244.83,-1.104 0.66667,-0.66667 -0.66667,-0.66666 -0.66667,-0.66667 v 2.6667 z m 251.83,-0.30504 1.5,-0.5756 v -0.78603 h -3 v 1.9372 z m -246.08,-0.44057 1.9167,0.0789 -0.60417,-0.60416 -0.60417,-0.60417 -2.625,1.0504 z m 17.533,0.0113 3.45,0.0677 -2.3347,-2.3347 -4.5653,2.1994 z m 225.55,0.0677 h 0.5 v -1 h -1 v 1 z m 7,-2 h 0.5 v -1 h -1 v 1 z m -249.32,-10 h 2.9626 l -0.6391,-4.3433 -2.8187,-0.92955 0.62796,1.6364 0.62796,1.6364 h -1.9372 v -2 h -3 v 0.83643 l 1.214,3.1636 z m 13.645,0 h 8.6973 l 2.498,-4 h -19.591 l -0.30131,4 z m -16.215,-15 h 0.39301 v -11 h -2 v 7.8364 l 1.214,3.1636 z m 227.39,49 h -1.3333 l 1.3333,-1.3333 1.3333,1.3333 z m -25,-2 h -1.3333 l 1.3333,-1.3333 1.3333,1.3333 z"
         fill="#151515"
         id="path4" />
    </g>
  </g>
</svg>
